<svg version="1.1" id="Layer_1" xmlns="http://www.w3.org/2000/svg" xmlns:xlink="http://www.w3.org/1999/xlink" x="0px" y="0px"
	 width="100%" viewBox="0 0 137 130" enable-background="new 0 0 137 130" xml:space="preserve">

<path fill="#038C01" opacity="1.000000" stroke="none" 
	d="
M93.464645,131.000000 
	C89.894852,130.137283 86.789703,129.274582 83.558395,127.984306 
	C92.602524,124.702881 101.772797,121.849014 110.943069,118.995148 
	C109.543259,122.760818 108.143448,126.526482 106.871819,130.646072 
	C102.643097,131.000000 98.286201,131.000000 93.464645,131.000000 
z"/>
<path fill="#21DB0E" opacity="1.000000" stroke="none" 
	d="
M89.386948,7.877183 
	C89.351074,7.466672 89.315208,7.056161 89.439987,6.151525 
	C89.751762,5.380036 89.804695,5.085041 89.759430,4.772415 
	C89.759430,4.772415 89.996117,4.933842 90.114014,4.808867 
	C90.535545,4.556012 90.806366,4.378162 91.044373,4.150347 
	C93.277138,3.266513 95.509903,2.382678 97.371338,1.249422 
	C98.066673,1.000000 99.133339,1.000000 100.679901,1.313800 
	C102.040886,2.780300 102.921989,3.933000 103.803085,5.085700 
	C103.823776,5.489592 103.844460,5.893484 103.491760,6.674865 
	C99.606796,9.313680 96.095215,11.575005 93.741982,13.090398 
	C91.665474,10.604699 90.526207,9.240941 89.386948,7.877183 
z"/>
<path fill="#0BA804" opacity="1.000000" stroke="none" 
	d="
M103.904358,4.686214 
	C102.921989,3.933000 102.040886,2.780300 101.079895,1.313800 
	C101.750000,1.000000 102.500000,1.000000 103.625000,1.000000 
	C104.001869,2.095576 104.003746,3.191153 103.904358,4.686214 
z"/>
<path fill="#069401" opacity="1.000000" stroke="none" 
	d="
M111.006447,118.554558 
	C101.772797,121.849014 92.602524,124.702881 83.190979,127.827614 
	C63.235970,126.224991 43.507423,124.492584 23.814070,122.424995 
	C12.029545,121.187737 12.047075,120.951965 12.026371,109.200111 
	C12.020799,106.036835 12.073697,102.873459 12.615383,99.375351 
	C14.756337,99.359917 16.381660,99.679268 18.397095,99.999535 
	C20.086975,99.981834 21.386742,99.963219 22.686510,99.944595 
	C22.765610,101.734024 22.905895,103.523209 22.913084,105.312927 
	C22.942263,112.578423 22.927189,112.578484 30.707195,113.608444 
	C32.770580,115.193344 34.175434,116.829529 35.910923,117.338676 
	C49.346157,121.280167 63.227516,122.570030 76.905060,120.256790 
	C88.444450,118.305161 99.614296,114.168526 110.947716,110.999031 
	C110.988419,113.370674 111.029121,115.742325 111.006447,118.554558 
z"/>
<path fill="#089901" opacity="1.000000" stroke="none" 
	d="
M111.014359,110.535530 
	C99.614296,114.168526 88.444450,118.305161 76.905060,120.256790 
	C63.227516,122.570030 49.346157,121.280167 35.910923,117.338676 
	C34.175434,116.829529 32.770580,115.193344 31.081253,113.702820 
	C44.356628,114.219925 57.763317,115.113449 71.713455,116.129044 
	C72.256897,116.251099 72.612152,116.286201 72.612152,116.286201 
	C72.612152,116.286201 72.960243,116.201157 72.960243,116.201157 
	C74.702438,116.181412 76.444641,116.161674 78.734917,116.214874 
	C79.526009,116.321037 79.755234,116.277191 79.970673,116.156281 
	C93.734291,114.055664 103.618881,106.494835 111.081001,94.528122 
	C111.081001,99.709427 111.081001,104.890724 111.014359,110.535530 
z"/>
<path fill="#20EE00" opacity="1.000000" stroke="none" 
	d="
M48.004032,29.131378 
	C60.375851,28.364445 72.747673,27.597509 85.513992,27.253664 
	C83.603508,33.728012 78.528694,36.621925 72.537735,38.999687 
	C66.868317,38.509583 61.515850,38.602718 56.503357,37.343044 
	C52.575977,36.356068 48.093952,34.675941 48.004032,29.131378 
z"/>
<path fill="#1AD501" opacity="1.000000" stroke="none" 
	d="
M89.945648,26.443733 
	C94.135803,26.145687 98.325958,25.847641 102.522675,25.549128 
	C103.928726,28.097172 101.754814,32.994198 107.574333,32.386635 
	C106.959007,35.246429 106.216766,37.804688 104.904121,40.025848 
	C102.396683,44.268711 99.564331,48.319561 96.866844,52.450111 
	C95.045792,51.477913 93.224731,50.505718 91.464890,49.175125 
	C92.013184,47.536682 92.500259,46.256641 92.984177,44.609894 
	C92.655281,42.827686 92.329567,41.412193 92.007362,39.574085 
	C91.322464,34.915562 90.634056,30.679647 89.945648,26.443733 
z"/>
<path fill="#1CDB01" opacity="1.000000" stroke="none" 
	d="
M69.881699,46.530098 
	C61.479538,46.879738 53.077377,47.229382 43.952957,47.415176 
	C42.161217,47.113804 41.091743,46.976276 39.968090,46.495060 
	C38.752857,44.411026 37.585251,42.675003 36.432152,40.929401 
	C34.285133,37.679169 32.146568,34.423359 30.004482,31.169872 
	C35.031086,30.477144 40.057690,29.784418 45.219257,29.296383 
	C44.056282,30.042881 42.758347,30.584686 40.089890,31.698593 
	C43.722980,34.833397 46.142124,38.059345 49.356194,39.456112 
	C55.973103,42.331673 63.014801,44.229771 69.881699,46.530098 
z"/>
<path fill="#0FB103" opacity="1.000000" stroke="none" 
	d="
M90.145424,84.037735 
	C88.585388,92.509499 82.929558,97.970787 74.492767,97.967735 
	C65.359398,97.964424 56.215103,97.268646 47.106884,96.502617 
	C45.927032,96.403381 44.186314,94.176559 44.005280,92.768173 
	C43.585575,89.503029 43.961609,86.135597 44.354805,82.340881 
	C44.694561,81.872116 45.133873,81.933090 45.115833,82.278061 
	C45.126518,83.080750 45.155243,83.538475 45.144958,84.397202 
	C45.134785,85.868942 45.163620,86.939667 45.165276,88.346436 
	C45.167099,89.130127 45.196098,89.577789 45.179565,90.419312 
	C44.624619,94.517967 46.340324,96.066986 50.353096,95.835510 
	C51.841415,95.866013 52.925125,95.843544 54.442299,95.868713 
	C61.571899,96.840477 66.733620,93.397675 72.134026,89.800209 
	C72.867401,88.912514 73.356216,88.162773 74.058517,87.271606 
	C74.428947,87.062996 74.585899,86.995827 74.921593,86.843536 
	C75.346283,86.307861 75.592232,85.857292 75.973801,85.277054 
	C76.109413,85.147385 76.453758,84.998222 76.819466,85.066086 
	C81.505257,84.768547 85.825340,84.403137 90.145424,84.037735 
z"/>
<path fill="#16C501" opacity="1.000000" stroke="none" 
	d="
M42.670113,76.157043 
	C39.715412,75.108047 36.760708,74.059059 33.289143,72.637184 
	C30.517540,69.536316 28.262800,66.808342 26.008060,64.080360 
	C41.415119,63.678478 56.820869,63.134708 72.230324,62.993095 
	C75.354469,62.964378 78.492577,64.453751 81.816803,65.886642 
	C81.990005,66.752930 81.970634,66.975830 81.712265,67.146210 
	C81.473274,67.093689 80.988991,67.023125 80.753555,66.823746 
	C79.743004,66.401352 78.967888,66.178345 78.021637,65.795410 
	C77.610497,65.424095 77.333183,65.289688 76.701752,65.179626 
	C75.957214,65.120636 75.529518,65.114281 74.682922,65.050415 
	C72.866158,65.029716 71.468277,65.066513 69.699066,65.063385 
	C68.583420,65.045021 67.839096,65.066582 66.833038,65.052200 
	C66.395569,65.004372 66.219833,64.992477 65.600967,64.964691 
	C62.798725,64.991676 60.439610,65.034538 57.647560,65.053619 
	C49.047535,65.111710 45.168457,68.331947 43.666069,76.036896 
	C43.112419,76.100731 42.891266,76.128883 42.670113,76.157043 
z"/>
<path fill="#17CB01" opacity="1.000000" stroke="none" 
	d="
M32.013611,47.849831 
	C27.296442,48.064129 22.579275,48.278427 17.426367,48.085014 
	C15.397640,45.779037 13.804654,43.880772 12.211668,41.982506 
	C12.174054,41.221821 12.136439,40.461140 12.302118,39.082775 
	C12.654206,37.936279 12.803000,37.407459 12.951794,36.878643 
	C14.596544,31.901402 18.492176,30.683039 23.619778,31.208122 
	C25.215284,34.181763 26.289707,36.742722 27.514296,39.229740 
	C28.945694,42.136768 30.508062,44.979313 32.013611,47.849831 
z"/>
<path fill="#24E900" opacity="1.000000" stroke="none" 
	d="
M89.613571,26.398075 
	C90.634056,30.679647 91.322464,34.915562 91.677612,39.674164 
	C89.542519,41.811848 87.740700,43.426846 85.627266,45.101349 
	C83.536217,45.456020 81.756775,45.751186 79.977333,46.046356 
	C79.236122,46.097336 78.494919,46.148315 77.085869,45.944569 
	C75.278343,45.460754 74.138664,45.231670 72.999260,44.573929 
	C73.000099,42.430126 73.000656,40.714989 73.001221,38.999847 
	C78.528694,36.621925 83.603508,33.728012 85.956367,27.319668 
	C87.096657,26.759195 88.189072,26.555807 89.613571,26.398075 
z"/>
<path fill="#0EAF00" opacity="1.000000" stroke="none" 
	d="
M22.689388,75.981247 
	C22.724121,80.363045 22.758852,84.744835 22.353436,89.617142 
	C18.719379,91.781654 15.525471,93.455673 12.331562,95.129692 
	C12.244637,87.392715 12.157709,79.655731 12.465181,71.549980 
	C16.136183,72.781219 19.412786,74.381233 22.689388,75.981247 
z"/>
<path fill="#1FE800" opacity="1.000000" stroke="none" 
	d="
M72.537735,38.999687 
	C73.000656,40.714989 73.000099,42.430126 72.846466,44.723717 
	C72.451424,45.651718 72.209442,46.001270 71.967468,46.350819 
	C71.507401,46.443157 71.047340,46.535500 70.234482,46.578972 
	C63.014801,44.229771 55.973103,42.331673 49.356194,39.456112 
	C46.142124,38.059345 43.722980,34.833397 40.089890,31.698593 
	C42.758347,30.584686 44.056282,30.042881 45.655716,29.358170 
	C46.412014,29.150948 46.866814,29.086632 47.662819,29.076847 
	C48.093952,34.675941 52.575977,36.356068 56.503357,37.343044 
	C61.515850,38.602718 66.868317,38.509583 72.537735,38.999687 
z"/>
<path fill="#11BA01" opacity="1.000000" stroke="none" 
	d="
M22.774845,75.567833 
	C19.412786,74.381233 16.136183,72.781219 12.532921,71.084976 
	C12.206260,66.856773 12.206260,62.724796 12.206260,59.510677 
	C16.386786,60.928600 20.795267,62.423840 25.605906,63.999718 
	C28.262800,66.808342 30.517540,69.536316 32.890533,72.571434 
	C30.695723,72.948074 28.348444,72.806999 26.083866,73.174942 
	C24.932531,73.362007 23.930065,74.465309 22.774845,75.567833 
z"/>
<path fill="#17CC00" opacity="1.000000" stroke="none" 
	d="
M97.031754,52.708660 
	C99.564331,48.319561 102.396683,44.268711 104.904121,40.025848 
	C106.216766,37.804688 106.959007,35.246429 107.977005,32.461071 
	C110.424065,31.475758 111.193100,32.588699 111.148621,34.893024 
	C111.050987,39.949528 111.080933,45.008499 110.652550,50.597137 
	C107.448639,53.108688 104.650978,55.089569 101.853310,57.070446 
	C100.301094,55.702702 98.748878,54.334957 97.031754,52.708660 
z"/>
<path fill="#14BC05" opacity="1.000000" stroke="none" 
	d="
M81.951256,67.198738 
	C81.970634,66.975830 81.990005,66.752930 82.034515,66.195358 
	C88.171303,68.724983 91.314857,75.226479 90.335251,83.703316 
	C85.825340,84.403137 81.505257,84.768547 76.931091,84.774895 
	C78.465828,82.712173 80.321693,81.072861 82.030457,79.292374 
	C86.552147,74.580879 86.785324,72.153381 83.053307,68.521889 
	C82.601410,67.936569 82.276329,67.567657 81.951256,67.198738 
z"/>
<path fill="#1AD800" opacity="1.000000" stroke="none" 
	d="
M32.431076,47.898430 
	C30.508062,44.979313 28.945694,42.136768 27.514296,39.229740 
	C26.289707,36.742722 25.215284,34.181763 24.032049,31.277431 
	C25.710737,30.947025 27.431824,30.992691 29.578695,31.104115 
	C32.146568,34.423359 34.285133,37.679169 36.432152,40.929401 
	C37.585251,42.675003 38.752857,44.411026 39.658302,46.552361 
	C38.614643,47.213894 37.826591,47.474430 37.038544,47.734970 
	C35.641876,47.805656 34.245205,47.876343 32.431076,47.898430 
z"/>
<path fill="#099B03" opacity="1.000000" stroke="none" 
	d="
M130.685547,21.934074 
	C131.679138,26.328997 130.396820,28.463604 125.435516,28.020018 
	C121.166191,27.638302 116.813042,27.638332 112.540947,27.995598 
	C108.044083,28.371660 106.491875,26.582163 107.063385,22.332167 
	C107.216621,21.192574 107.117958,20.019110 107.434013,18.528790 
	C108.112137,18.482723 108.491180,18.769062 108.888123,19.391714 
	C108.976761,20.171650 109.047493,20.615274 109.123871,21.403156 
	C110.065048,22.444508 111.000580,23.141602 112.330200,23.862963 
	C114.649193,23.538269 116.574081,23.189308 118.888596,22.989824 
	C123.080666,22.737556 126.883102,22.335815 130.685547,21.934074 
z"/>
<path fill="#33F51B" opacity="1.000000" stroke="none" 
	d="
M111.936111,23.838696 
	C111.000580,23.141602 110.065048,22.444508 109.388000,21.207813 
	C113.412521,16.515028 119.371590,13.884375 119.157829,6.968189 
	C122.125282,6.279244 125.092728,5.590299 128.516998,5.313642 
	C128.649704,7.890154 128.325577,10.054379 127.949539,11.897987 
	C127.015549,11.161695 125.582596,10.174596 125.333107,10.415111 
	C120.782768,14.801800 116.374542,19.335913 111.936111,23.838696 
z"/>
<path fill="#1EF804" opacity="1.000000" stroke="none" 
	d="
M58.080498,65.077408 
	C60.439610,65.034538 62.798725,64.991676 65.598656,65.221008 
	C66.042900,65.663925 66.046318,65.834641 66.043411,66.018112 
	C66.037079,66.030869 66.021904,66.054985 65.695847,66.138855 
	C63.893566,67.793312 62.417347,69.363899 60.643272,71.082130 
	C57.906506,73.164001 55.467590,75.098236 52.701172,77.125320 
	C49.960403,78.789818 47.547138,80.361458 45.133873,81.933090 
	C45.133873,81.933090 44.694561,81.872116 44.472969,81.880692 
	C44.157860,80.858009 44.064339,79.826752 44.164749,78.303429 
	C44.610844,77.553673 44.862999,77.295990 45.428802,76.924095 
	C49.855133,72.899055 53.967815,68.988235 58.080498,65.077408 
z"/>
<path fill="#12BC02" opacity="1.000000" stroke="none" 
	d="
M128.001465,12.218605 
	C128.325577,10.054379 128.649704,7.890154 128.916138,5.302551 
	C129.553085,5.329391 130.784592,5.716282 130.846497,6.241132 
	C131.076233,8.188776 130.920746,10.181860 130.769318,12.773856 
	C130.684769,13.925271 130.740829,14.460708 130.796906,14.996143 
	C130.796097,17.022049 130.795288,19.047955 130.740021,21.503967 
	C126.883102,22.335815 123.080666,22.737556 119.155724,22.745708 
	C122.022636,18.974279 125.012054,15.596442 128.001465,12.218605 
z"/>
<path fill="#0BA804" opacity="1.000000" stroke="none" 
	d="
M89.291275,8.314237 
	C90.526207,9.240941 91.665474,10.604699 93.741982,13.090398 
	C96.095215,11.575005 99.606796,9.313680 103.450470,6.975929 
	C104.430481,15.886379 104.430481,15.886379 96.021614,15.885921 
	C89.120445,15.885546 89.120445,15.885546 89.291275,8.314237 
z"/>
<path fill="#13C001" opacity="1.000000" stroke="none" 
	d="
M101.999756,57.374165 
	C104.650978,55.089569 107.448639,53.108688 110.582130,51.060501 
	C110.917953,56.318756 110.917953,61.644321 110.917953,67.825790 
	C107.598572,63.985653 104.872391,60.831768 101.999756,57.374165 
z"/>
<path fill="#0AC600" opacity="1.000000" stroke="none" 
	d="
M12.273473,95.504837 
	C15.525471,93.455673 18.719379,91.781654 22.263107,90.077240 
	C22.645992,92.061157 22.679060,94.075470 22.318426,96.532669 
	C20.618813,97.983246 19.312899,98.990929 18.006985,99.998611 
	C16.381660,99.679268 14.756337,99.359917 12.714371,98.973068 
	C12.270281,97.897041 12.242832,96.888512 12.273473,95.504837 
z"/>
<path fill="#1FE501" opacity="1.000000" stroke="none" 
	d="
M118.771225,6.942614 
	C119.371590,13.884375 113.412521,16.515028 109.382355,20.863556 
	C109.047493,20.615274 108.976761,20.171650 109.102654,19.109394 
	C110.867355,15.024248 112.435440,11.557733 114.003525,8.091217 
	C115.463890,7.699824 116.924255,7.308431 118.771225,6.942614 
z"/>
<path fill="#16C701" opacity="1.000000" stroke="none" 
	d="
M113.637154,8.059074 
	C112.435440,11.557733 110.867355,15.024248 109.084747,18.773083 
	C108.491180,18.769062 108.112137,18.482723 107.523178,18.082861 
	C107.269402,15.634674 107.225533,13.300012 107.508316,10.478470 
	C108.228111,9.708287 108.621246,9.424983 109.014381,9.141680 
	C110.433182,8.770097 111.851982,8.398514 113.637154,8.059074 
z"/>
<path fill="#14C002" opacity="1.000000" stroke="none" 
	d="
M12.140987,42.410065 
	C13.804654,43.880772 15.397640,45.779037 17.020224,48.017357 
	C15.640826,48.507603 14.231833,48.657791 12.070306,48.888195 
	C12.070306,46.577305 12.070306,44.707466 12.140987,42.410065 
z"/>
<path fill="#1CDB01" opacity="1.000000" stroke="none" 
	d="
M80.304024,46.206139 
	C81.756775,45.751186 83.536217,45.456020 85.950119,45.262531 
	C88.718826,45.235008 90.853088,45.105808 92.987343,44.976608 
	C92.500259,46.256641 92.013184,47.536682 91.239670,48.917980 
	C90.784966,49.005272 90.616707,48.991310 90.099022,48.634399 
	C88.855713,48.076481 87.961838,47.861511 87.067963,47.646538 
	C84.922211,47.219666 82.776466,46.792793 80.304024,46.206139 
z"/>
<path fill="#0EAF00" opacity="1.000000" stroke="none" 
	d="
M18.397097,99.999535 
	C19.312899,98.990929 20.618813,97.983246 22.252140,96.959946 
	C22.647699,97.694138 22.715843,98.443939 22.735249,99.569168 
	C21.386742,99.963219 20.086975,99.981834 18.397097,99.999535 
z"/>
<path fill="#1CDB01" opacity="1.000000" stroke="none" 
	d="
M72.322968,46.451706 
	C72.209442,46.001270 72.451424,45.651718 72.846191,45.152378 
	C74.138664,45.231670 75.278343,45.460754 76.720734,45.866188 
	C75.575111,46.212555 74.126793,46.382576 72.322968,46.451706 
z"/>
<path fill="#17CB01" opacity="1.000000" stroke="none" 
	d="
M37.461769,47.805954 
	C37.826591,47.474430 38.614643,47.213894 39.712479,46.896049 
	C41.091743,46.976276 42.161217,47.113804 43.532364,47.362137 
	C41.851021,47.607609 39.868011,47.742271 37.461769,47.805954 
z"/>
<path fill="#0FB103" opacity="1.000000" stroke="none" 
	d="
M45.115158,77.038307 
	C44.862999,77.295990 44.610844,77.553673 44.109631,77.918633 
	C43.513680,77.590096 43.166779,77.154274 42.744995,76.437752 
	C42.891266,76.128883 43.112419,76.100731 43.855049,76.206009 
	C44.622738,76.572403 44.868950,76.805351 45.115158,77.038307 
z"/>
<path fill="#1AD501" opacity="1.000000" stroke="none" 
	d="
M87.347427,47.792084 
	C87.961838,47.861511 88.855713,48.076481 89.877304,48.512009 
	C89.212311,48.467590 88.419609,48.202606 87.347427,47.792084 
z"/>
<path fill="#099B03" opacity="1.000000" stroke="none" 
	d="
M108.749695,9.132527 
	C108.621246,9.424983 108.228111,9.708287 107.597786,10.050278 
	C107.735397,9.780436 108.110199,9.451905 108.749695,9.132527 
z"/>
<path fill="#099B03" opacity="1.000000" stroke="none" 
	d="
M130.868546,14.669433 
	C130.740829,14.460708 130.684769,13.925271 130.723511,13.203660 
	C130.858963,13.459231 130.899582,13.900976 130.868546,14.669433 
z"/>
<path fill="#14C002" opacity="1.000000" stroke="none" 
	d="
M12.748224,37.084290 
	C12.803000,37.407459 12.654206,37.936279 12.373403,38.707443 
	C12.342480,38.396511 12.443567,37.843224 12.748224,37.084290 
z"/>
<path fill="#0BA804" opacity="1.000000" stroke="none" 
	d="
M89.559509,4.922428 
	C89.804695,5.085041 89.751762,5.380036 89.469009,5.843069 
	C89.151581,5.705496 89.158974,5.386731 89.559509,4.922428 
z"/>
<path fill="#0BA804" opacity="1.000000" stroke="none" 
	d="
M90.779846,4.134154 
	C90.806366,4.378162 90.535545,4.556012 89.992599,4.734886 
	C90.007294,4.563240 90.261307,4.340601 90.779846,4.134154 
z"/>
<path fill="#069401" opacity="1.000000" stroke="none" 
	d="
M72.731125,116.151718 
	C72.960243,116.201157 72.612152,116.286201 72.612152,116.286201 
	C72.612152,116.286201 72.256897,116.251099 72.146561,116.203064 
	C72.036224,116.155029 72.502014,116.102280 72.731125,116.151718 
z"/>
<path fill="#069401" opacity="1.000000" stroke="none" 
	d="
M79.739182,116.134872 
	C79.755234,116.277191 79.526009,116.321037 79.168930,116.253433 
	C79.054863,116.219063 79.507683,116.113457 79.739182,116.134872 
z"/>
<path fill="#2AFB05" opacity="1.000000" stroke="none" 
	d="
M92.984177,44.609894 
	C90.853088,45.105808 88.718826,45.235008 86.261719,45.203026 
	C87.740700,43.426846 89.542519,41.811848 91.674103,40.096771 
	C92.329567,41.412193 92.655281,42.827686 92.984177,44.609894 
z"/>
<path fill="#69F36A" opacity="1.000000" stroke="none" 
	d="
M81.712265,67.146210 
	C82.276329,67.567657 82.601410,67.936569 82.931938,68.863243 
	C82.229881,70.526123 81.731186,71.870308 80.782349,72.699173 
	C71.901825,80.456825 62.944180,88.126183 54.008842,95.821075 
	C52.925125,95.843544 51.841415,95.866013 50.480553,95.529999 
	C50.983616,94.122147 51.624062,92.922394 52.565933,92.046928 
	C60.878979,84.320023 69.227165,76.630508 77.622047,68.992668 
	C78.562881,68.136681 79.858109,67.670219 80.988991,67.023117 
	C80.988991,67.023125 81.473274,67.093689 81.712265,67.146210 
z"/>
<path fill="#52F150" opacity="1.000000" stroke="none" 
	d="
M80.753555,66.823746 
	C79.858109,67.670219 78.562881,68.136681 77.622047,68.992668 
	C69.227165,76.630508 60.878979,84.320023 52.565933,92.046928 
	C51.624062,92.922394 50.983616,94.122147 50.075943,95.477036 
	C46.340324,96.066986 44.624619,94.517967 45.539078,90.399033 
	C49.766392,87.464333 53.941788,85.342285 57.333973,82.336380 
	C63.502102,76.870636 69.204857,70.879700 75.101814,65.107925 
	C75.529518,65.114281 75.957214,65.120636 76.883255,65.320488 
	C77.634720,65.692818 77.905113,65.839935 78.192764,65.955338 
	C78.967888,66.178345 79.743004,66.401352 80.753555,66.823746 
z"/>
<path fill="#7FF482" opacity="1.000000" stroke="none" 
	d="
M54.442299,95.868713 
	C62.944180,88.126183 71.901825,80.456825 80.782349,72.699173 
	C81.731186,71.870308 82.229881,70.526123 83.058762,69.079643 
	C86.785324,72.153381 86.552147,74.580879 82.030457,79.292374 
	C80.321693,81.072861 78.465828,82.712173 76.565384,84.707031 
	C76.453758,84.998222 76.109413,85.147385 75.762650,85.301476 
	C75.191536,85.946594 74.967194,86.437622 74.742851,86.928650 
	C74.585899,86.995827 74.428947,87.062996 73.782242,87.327034 
	C72.824814,88.328659 72.357140,89.133415 71.889465,89.938164 
	C66.733620,93.397675 61.571899,96.840477 54.442299,95.868713 
z"/>
<path fill="#47F33E" opacity="1.000000" stroke="none" 
	d="
M74.682922,65.050415 
	C69.204857,70.879700 63.502102,76.870636 57.333973,82.336380 
	C53.941788,85.342285 49.766392,87.464333 45.584610,90.005157 
	C45.196098,89.577789 45.167099,89.130127 45.504372,88.293793 
	C48.723370,85.734749 51.829552,83.824257 54.376324,81.340210 
	C59.762527,76.086662 64.856544,70.533554 70.070404,65.103317 
	C71.468277,65.066513 72.866158,65.029716 74.682922,65.050415 
z"/>
<path fill="#3BF230" opacity="1.000000" stroke="none" 
	d="
M69.699066,65.063385 
	C64.856544,70.533554 59.762527,76.086662 54.376324,81.340210 
	C51.829552,83.824257 48.723370,85.734749 45.531551,87.957748 
	C45.163620,86.939667 45.134785,85.868942 45.483299,84.347656 
	C48.249989,81.608887 50.639336,79.320671 53.028679,77.032463 
	C55.467590,75.098236 57.906506,73.164001 60.972954,70.999283 
	C63.074295,69.197517 64.548103,67.626251 66.021904,66.054985 
	C66.021904,66.054985 66.037079,66.030869 66.229118,65.880081 
	C66.660904,65.531555 66.885445,65.317833 67.094780,65.088142 
	C67.839096,65.066582 68.583420,65.045021 69.699066,65.063385 
z"/>
<path fill="#2CF71B" opacity="1.000000" stroke="none" 
	d="
M52.701172,77.125320 
	C50.639336,79.320671 48.249989,81.608887 45.522308,83.946640 
	C45.155243,83.538475 45.126518,83.080750 45.115833,82.278061 
	C47.547138,80.361458 49.960403,78.789818 52.701172,77.125320 
z"/>
<path fill="#14BC05" opacity="1.000000" stroke="none" 
	d="
M72.134033,89.800209 
	C72.357140,89.133415 72.824814,88.328659 73.568756,87.468475 
	C73.356216,88.162773 72.867401,88.912514 72.134033,89.800209 
z"/>
<path fill="#14BC05" opacity="1.000000" stroke="none" 
	d="
M74.921593,86.843536 
	C74.967194,86.437622 75.191536,85.946594 75.627029,85.431145 
	C75.592232,85.857292 75.346283,86.307861 74.921593,86.843536 
z"/>
<path fill="#1DDA00" opacity="1.000000" stroke="none" 
	d="
M45.428802,76.924095 
	C44.868950,76.805351 44.622738,76.572403 44.187546,76.170334 
	C45.168457,68.331947 49.047535,65.111710 57.647560,65.053619 
	C53.967815,68.988235 49.855133,72.899055 45.428802,76.924095 
z"/>
<path fill="#47F33E" opacity="1.000000" stroke="none" 
	d="
M78.021637,65.795410 
	C77.905113,65.839935 77.634720,65.692818 77.200089,65.373123 
	C77.333183,65.289688 77.610497,65.424095 78.021637,65.795410 
z"/>
<path fill="#2CF71B" opacity="1.000000" stroke="none" 
	d="
M66.833038,65.052200 
	C66.885445,65.317833 66.660904,65.531555 66.235451,65.867325 
	C66.046318,65.834641 66.042900,65.663925 66.041794,65.236893 
	C66.219833,64.992477 66.395569,65.004372 66.833038,65.052200 
z"/>
<path fill="#60F659" opacity="1.000000" stroke="none" 
	d="
M127.949539,11.897987 
	C125.012054,15.596442 122.022636,18.974279 118.766098,22.596233 
	C116.574081,23.189308 114.649193,23.538269 112.330200,23.862963 
	C116.374542,19.335913 120.782768,14.801800 125.333107,10.415111 
	C125.582596,10.174596 127.015549,11.161695 127.949539,11.897987 
z"/>
<path fill="#2CF71B" opacity="1.000000" stroke="none" 
	d="
M65.695847,66.138855 
	C64.548103,67.626251 63.074295,69.197517 61.270805,70.851639 
	C62.417347,69.363899 63.893566,67.793312 65.695847,66.138855 
z"/>
</svg>