<svg version="1.1" id="Layer_1" xmlns="http://www.w3.org/2000/svg" xmlns:xlink="http://www.w3.org/1999/xlink" x="0px" y="0px"
	 width="100%" viewBox="0 0 600 130" enable-background="new 0 0 600 130" xml:space="preserve">
<path fill="#000000" opacity="1.000000" stroke="none"
	d="
M149.000000,131.000000
	C99.716553,131.000000 50.433098,131.000000 1.074824,131.000000
	C1.074824,87.760475 1.074824,44.520786 1.074824,1.000000
	C52.353886,1.000000 103.708282,1.000000 155.725403,1.350248
	C154.895325,2.455140 153.402527,3.209784 151.610367,3.984803
	C150.923126,4.345112 150.535263,4.685046 150.084915,5.445965
	C150.074219,7.567706 150.125977,9.268462 150.110870,11.402493
	C150.191422,13.627090 149.223877,16.029844 152.542221,15.982033
	C156.902191,15.919213 161.263779,15.966610 165.845993,15.966610
	C165.845993,13.183655 165.845993,11.080989 165.900391,8.538551
	C165.969879,5.732520 165.984940,3.366260 166.000000,1.000000
	C310.936340,1.000000 455.872681,1.000000 600.904541,1.000000
	C600.904541,44.250458 600.904541,87.501198 600.904541,131.000000
	C457.312531,131.000000 313.624939,131.000000 169.398560,130.632385
	C170.188797,126.843376 171.517776,123.421982 172.903259,119.573883
	C172.920914,117.428802 172.882065,115.710426 172.898041,113.557449
	C172.915909,111.081314 172.878952,109.039780 172.900391,106.534866
	C172.958801,101.451332 172.958801,96.831184 172.958801,92.778053
	C166.969360,99.287590 161.193375,105.565147 155.056976,111.719292
	C148.321854,113.050537 141.983765,115.478111 135.563370,115.719894
	C127.047829,116.040588 118.466591,114.672112 109.916199,113.996399
	C101.411186,113.324272 92.909416,112.611206 83.825249,111.868599
	C83.825249,107.571907 83.825249,103.778267 83.882080,99.519852
	C83.974953,90.738686 84.010994,82.422287 84.509773,74.061134
	C88.266586,74.011353 91.560669,73.999901 94.854736,74.002594
	C102.794456,74.009094 103.743683,74.924744 104.096802,83.419678
	C104.029587,88.140511 104.029587,92.396828 104.029587,96.867104
	C112.776665,97.292068 121.107994,96.549927 128.860840,98.328873
	C142.147003,101.377480 154.633682,90.285820 151.900620,77.662201
	C150.583694,74.533867 149.207275,71.781822 147.781189,68.691071
	C144.515854,66.545326 141.475998,63.805672 138.041718,63.158310
	C133.348114,62.273548 128.354446,62.980106 123.489403,63.005463
	C113.331406,63.058414 103.173409,63.111977 92.556267,63.095528
	C85.286888,62.721451 77.665054,64.883339 73.169350,55.516434
	C73.169350,59.570709 73.169350,62.280575 73.101074,65.451500
	C73.077881,70.271950 73.122963,74.631332 73.101257,79.453522
	C73.025681,82.995552 72.821503,86.091339 73.080536,89.147881
	C73.238853,91.016075 74.108955,92.823944 74.601486,94.704361
	C74.543602,94.749825 74.544510,94.897034 74.440315,95.289795
	C74.353836,96.759117 74.371552,97.835678 73.986488,98.932053
	C73.442024,102.966362 73.300331,106.980865 73.097893,111.453697
	C73.037140,115.163460 73.037140,118.414894 73.037140,122.081192
	C84.797958,123.027260 95.899879,123.920319 107.327377,124.873650
	C108.091644,124.982735 108.530350,125.031548 109.220551,125.390434
	C111.648582,125.738441 113.825119,125.776375 116.371109,125.872162
	C117.486412,125.982887 118.232269,126.035759 119.246368,126.404800
	C128.019867,127.426353 136.525116,128.131729 145.264420,128.873932
	C145.498474,128.910736 145.964691,128.825928 146.336304,128.881775
	C147.457352,128.986755 148.206772,129.035904 149.022461,129.408997
	C149.059143,130.155289 149.029572,130.577652 149.000000,131.000000
M191.940018,15.102630
	C191.962021,12.109029 192.067032,9.113034 191.980804,6.122554
	C191.906464,3.544428 190.688919,3.347753 188.050308,4.987589
	C185.016113,5.618834 181.981903,6.250077 178.171585,6.970123
	C176.750687,7.299002 175.329773,7.627881 173.141281,7.991484
	C166.265091,7.678253 169.374481,12.739753 168.264664,16.445620
	C168.264664,20.159700 168.264664,23.873779 168.264664,27.794367
	C170.807892,27.794367 172.916367,27.794367 175.948196,27.914762
	C180.969910,27.875858 185.991623,27.836954 191.471466,27.796318
	C191.794785,27.625601 191.903549,27.365202 191.901001,26.338034
	C191.873703,25.883411 191.846405,25.428789 191.954315,24.329519
	C191.921143,23.893570 191.887970,23.457623 191.957993,22.276878
	C191.916199,21.528858 191.874405,20.780838 191.949905,19.233669
	C191.906036,18.162628 191.862183,17.091585 191.940018,15.102630
M77.235001,32.004375
	C70.046799,36.286728 74.062691,42.933891 72.977837,48.832413
	C76.814621,48.832413 79.911743,48.832413 83.905029,48.957378
	C87.278313,48.674110 90.651588,48.390839 94.951065,48.011169
	C99.969246,47.951828 104.987434,47.892483 110.918358,47.960724
	C121.275795,47.580902 131.633240,47.201080 142.773804,46.959873
	C145.863800,47.915398 148.953812,48.870922 152.656418,50.172905
	C156.090469,52.816380 159.524521,55.459854 163.233231,58.708942
	C166.143875,62.117489 169.054504,65.526031 172.833527,69.951508
	C172.833527,62.105282 172.833527,55.547306 172.954742,48.062302
	C172.970047,44.238354 172.715530,40.389320 173.068176,36.596737
	C173.520599,31.731066 171.467773,30.229883 166.176270,30.981920
	C165.573410,29.130194 164.970551,27.278465 164.169205,24.817112
	C159.273514,25.252916 154.152344,25.708790 148.139526,26.034834
	C143.772095,26.412281 139.404648,26.789730 134.114929,27.028288
	C126.078735,27.407454 118.042549,27.786621 109.340485,28.039253
	C108.549370,28.415545 107.758263,28.791836 106.059677,29.030539
	C102.375977,29.075043 98.692276,29.119547 94.186028,29.061596
	C91.127182,29.430132 88.068336,29.798670 84.228439,30.030184
	C82.140831,30.646505 80.053215,31.262827 77.235001,32.004375
M203.057709,57.731888
	C203.057709,71.123596 203.057709,84.515297 203.057709,97.999962
	C211.002777,97.999962 218.327316,98.243935 225.627151,97.924194
	C231.668381,97.659576 237.301514,95.693474 239.717728,89.515976
	C242.301376,82.910385 242.530411,76.037941 240.648712,69.050903
	C238.906509,62.581779 234.875854,58.670349 228.388245,58.094730
	C220.208557,57.368992 211.964447,57.369228 203.057709,57.731888
M330.619415,86.000000
	C335.711456,86.000000 340.803528,86.000000 345.799805,86.000000
	C347.312469,74.122475 341.924713,64.932480 327.936310,65.822075
	C314.850281,66.654297 307.603363,77.927399 312.916901,90.112549
	C316.949432,99.360161 329.296326,101.006836 338.687683,97.031288
	C344.264282,94.670593 344.260101,93.446838 339.954224,89.312302
	C337.284576,86.748878 335.552338,88.864319 333.496643,89.842285
	C328.532135,92.204025 325.407013,91.123215 322.660126,86.000000
	C325.014038,86.000000 327.341217,86.000000 330.619415,86.000000
M290.033752,72.387009
	C289.184814,70.338478 288.335876,68.289955 287.466217,66.191391
	C284.076660,66.191391 280.626556,66.191391 276.352570,66.191391
	C281.142761,77.116074 285.731567,87.581436 290.299774,97.999893
	C292.867737,97.999893 295.052094,98.195084 297.178284,97.927673
	C298.481415,97.763779 300.401306,97.221069 300.839447,96.284744
	C304.975708,87.444870 308.888153,78.498970 312.750732,69.534348
	C313.149139,68.609657 312.804230,67.364700 312.804230,66.000061
	C310.448059,66.000061 308.224243,65.654213 306.179352,66.110405
	C304.568054,66.469856 302.469391,67.467171 301.815308,68.788956
	C299.421082,73.626938 297.540375,78.719063 295.127014,84.532738
	C293.461090,80.358040 291.997589,76.690521 290.033752,72.387009
M389.863831,71.651947
	C389.365570,72.806213 388.744659,73.923904 388.387756,75.120346
	C384.260223,88.957695 391.571106,98.817680 405.358093,97.958733
	C406.753662,97.871788 408.100555,97.155426 409.495392,96.845337
	C410.272583,96.672554 411.153687,96.538490 411.897552,96.732872
	C413.484833,97.147644 415.013275,97.787750 416.764069,98.405479
	C416.764069,83.364960 416.764069,69.307899 416.764069,55.224731
	C415.116394,55.224731 413.715485,55.224731 411.970184,55.224731
	C411.970184,59.466053 411.970184,63.499569 411.970184,67.733635
	C403.856842,62.697857 395.922638,63.929920 389.863831,71.651947
M377.958618,72.539810
	C376.002289,68.154106 373.790924,63.859707 372.176910,59.351448
	C371.051392,56.207726 369.375031,55.288818 366.130524,56.349377
	C360.284119,69.905960 354.373901,83.610535 348.337280,97.608170
	C352.287872,98.304123 354.447784,98.385307 355.411346,94.366585
	C356.682343,89.065552 359.910858,85.467987 366.259766,86.968910
	C367.205292,87.192444 368.280334,87.160675 369.242554,86.974144
	C375.891235,85.685303 380.232025,88.195244 381.945465,94.775032
	C382.826996,98.160286 384.851013,98.607826 388.927124,97.261543
	C385.249695,89.182419 381.640747,81.253777 377.958618,72.539810
M495.310944,65.177246
	C486.772125,68.157661 486.331543,75.853600 486.205566,82.758842
	C486.036621,92.021675 489.114410,96.262962 496.280151,97.557259
	C500.465698,98.313278 505.058807,97.486359 509.335968,96.673683
	C510.715027,96.411652 511.671417,93.924995 512.821167,92.456017
	C510.948334,92.297928 508.808868,91.470505 507.246857,92.092728
	C498.509064,95.573334 494.586212,93.836151 491.032745,83.999527
	C499.406494,83.999527 507.613190,83.999527 515.796082,83.999527
	C516.040222,69.712471 511.253998,63.498142 498.649994,64.987869
	C497.828247,65.084999 496.985901,65.007919 495.310944,65.177246
M467.162201,76.696411
	C466.021393,75.741066 464.880615,74.785728 463.794647,73.876312
	C467.810608,68.586296 472.902191,67.748085 477.824982,72.073380
	C478.693512,72.836472 480.946198,72.024124 482.559692,71.939323
	C482.058777,70.294739 481.804230,67.364685 481.016998,67.213791
	C475.828491,66.219231 470.454956,65.020073 465.280609,65.473183
	C460.740295,65.870766 458.685181,71.865723 459.829834,76.531067
	C461.080200,81.627274 465.526184,81.585442 469.047546,82.942162
	C473.005859,84.467232 477.682373,84.559425 480.031342,88.958473
	C475.059265,95.053734 472.322815,95.528419 466.008331,91.513786
	C465.196381,90.997574 464.263977,90.177673 463.457794,90.252945
	C461.992737,90.389725 460.580627,91.093437 459.146423,91.560555
	C459.845062,92.928452 460.187134,94.852997 461.303802,95.568352
	C466.271271,98.750603 471.953003,98.409340 477.459564,97.760818
	C482.374359,97.182014 484.683716,93.299706 484.801544,88.962173
	C484.909729,84.978851 482.851440,81.695000 478.245880,80.595833
	C474.700531,79.749695 471.319275,78.216019 467.162201,76.696411
M254.000031,82.962601
	C254.906097,76.953049 257.097412,75.026489 264.748444,73.494003
	C264.748444,71.063248 264.748444,68.644814 264.748444,66.808578
	C258.107880,66.808578 251.723328,66.808578 245.355942,66.808578
	C245.355942,76.940437 245.355942,87.442818 245.355942,97.831879
	C248.331558,97.831879 250.948441,97.831879 254.000000,97.831879
	C254.000000,93.074196 254.000000,88.471741 254.000031,82.962601
M432.342560,87.872757
	C429.581360,81.041382 427.030212,74.111275 423.900757,67.452980
	C423.181854,65.923462 420.475555,65.328033 417.806519,63.800652
	C418.046753,66.173866 417.957336,66.891144 418.201843,67.466499
	C422.208130,76.893738 426.201050,86.327820 430.374664,95.681061
	C430.831085,96.703926 432.442993,97.918747 433.409515,97.831535
	C434.685486,97.716377 436.410095,96.680237 436.970673,95.555832
	C439.326569,90.830193 441.391144,85.953575 443.427704,81.075996
	C445.552887,75.986130 447.523438,70.831688 449.550476,65.733482
	C444.058014,63.388367 443.302155,67.188988 442.050079,69.990982
	C439.311035,76.120720 436.716248,82.314880 434.011780,88.460388
	C433.959717,88.578621 433.282227,88.421623 432.342560,87.872757
M268.618591,97.999687
	C271.029999,97.999687 273.441437,97.999687 275.750824,97.999687
	C275.750824,87.004234 275.750824,76.639259 275.750824,66.231766
	C272.437775,66.231766 269.378357,66.231766 266.003296,66.231766
	C266.003296,76.366211 265.973816,86.272743 266.074524,96.177948
	C266.080719,96.789192 267.112793,97.389999 268.618591,97.999687
M524.000000,81.790878
	C524.056519,74.710724 527.501526,70.800667 534.996094,69.622627
	C534.929749,68.105576 534.862305,66.566010 534.757629,64.174377
	C530.763794,65.396835 527.456726,66.409088 524.149658,67.421341
	C524.301025,67.033493 524.452332,66.645645 524.603638,66.257797
	C522.927856,65.728691 521.252014,65.199585 519.210327,64.554955
	C519.210327,76.145958 519.210327,86.911880 519.210327,97.804649
	C520.824646,97.804649 522.227478,97.804649 524.000000,97.804649
	C524.000000,92.654655 524.000000,87.689308 524.000000,81.790878
M454.997223,66.800407
	C453.897888,66.071701 452.798553,65.342995 451.251221,64.317322
	C451.251221,76.390221 451.251221,87.106842 451.251221,97.752823
	C452.577271,97.752823 453.648773,97.752823 454.575165,97.752823
	C454.793427,97.370285 454.943695,97.229691 454.944092,97.088684
	C454.970306,87.308281 454.984589,77.527840 454.997223,66.800407
M266.001862,58.743641
	C266.006775,59.739410 265.605988,61.266338 266.089417,61.635540
	C267.833771,62.967804 269.777069,64.387337 271.843750,64.815453
	C273.024994,65.060158 275.714600,63.521839 275.768707,62.663116
	C275.921814,60.231552 275.811340,56.266582 274.451294,55.577717
	C271.762268,54.215729 267.937439,53.917183 266.001862,58.743641
M455.933258,55.609367
	C454.066071,55.361748 452.198883,55.114132 449.611603,54.771019
	C450.094360,57.316139 450.103485,59.296635 450.922241,60.850498
	C451.320496,61.606255 454.200348,62.028103 454.304718,61.810066
	C455.098328,60.152721 455.483124,58.299641 455.933258,55.609367
z"/>
<path fill="#028E01" opacity="1.000000" stroke="none" 
	d="
M172.846756,120.000595 
	C171.517776,123.421982 170.188797,126.843376 168.929901,130.632385 
	C162.645599,131.000000 156.291214,131.000000 149.468414,131.000000 
	C149.029572,130.577652 149.059143,130.155289 149.192413,129.080154 
	C157.146332,125.618446 164.996536,122.809517 172.846756,120.000595 
z"/>
<path fill="#1DE200" opacity="1.000000" stroke="none" 
	d="
M151.909744,3.964427 
	C153.402527,3.209784 154.895325,2.455140 156.194061,1.350248 
	C158.370560,1.000000 160.741104,1.000000 163.565125,1.354587 
	C163.033066,3.168932 162.047516,4.628689 160.702850,6.100085 
	C159.898499,7.085558 159.453308,8.059392 159.002518,9.015378 
	C158.996933,8.997531 159.032852,9.007862 158.706909,8.952449 
	C157.570190,9.232109 156.759384,9.567183 155.991776,9.558079 
	C158.340607,4.571644 153.741592,5.355297 151.909744,3.964427 
z"/>
<path fill="#10B501" opacity="1.000000" stroke="none" 
	d="
M161.061981,6.088447 
	C162.047516,4.628689 163.033066,3.168932 164.009308,1.354587 
	C164.444443,1.000000 164.888901,1.000000 165.666672,1.000000 
	C165.984940,3.366260 165.969879,5.732520 165.597397,8.598305 
	C163.488800,9.063975 161.737595,9.030123 160.118973,8.706310 
	C160.521683,7.640383 160.791840,6.864415 161.061981,6.088447 
z"/>
<path fill="#FFFFFF" opacity="1.000000" stroke="none" 
	d="
M203.402924,57.394073 
	C211.964447,57.369228 220.208557,57.368992 228.388245,58.094730 
	C234.875854,58.670349 238.906509,62.581779 240.648712,69.050903 
	C242.530411,76.037941 242.301376,82.910385 239.717728,89.515976 
	C237.301514,95.693474 231.668381,97.659576 225.627151,97.924194 
	C218.327316,98.243935 211.002777,97.999962 203.057709,97.999962 
	C203.057709,84.515297 203.057709,71.123596 203.402924,57.394073 
M213.000000,74.541344
	C213.000000,79.298141 213.000000,84.054932 213.000000,89.024055
	C219.529297,88.555695 227.046127,91.404411 229.808594,83.597839 
	C231.223404,79.599579 231.280823,73.536148 229.138733,70.226967 
	C225.729828,64.960800 219.021332,65.812317 213.000000,66.186150 
	C213.000000,68.936996 213.000000,71.248352 213.000000,74.541344
z"/>
<path fill="#069701" opacity="1.000000" stroke="none"
	d="
M118.978119,126.088623 
	C118.232269,126.035759 117.486412,125.982887 116.298874,125.540207 
	C113.575188,123.745445 111.303986,121.279007 108.969048,125.080360 
	C108.530350,125.031548 108.091644,124.982735 107.251968,124.529755 
	C106.245430,123.603935 105.724075,122.853493 105.021667,122.594925 
	C94.414658,118.690399 83.783859,114.850456 73.158646,110.995377 
	C73.300331,106.980865 73.442024,102.966362 74.376106,99.036865 
	C77.476036,99.425827 79.783585,99.729759 82.379776,100.021484 
	C83.054039,100.001053 83.439644,99.992836 83.825249,99.984619 
	C83.825249,103.778267 83.825249,107.571907 83.825249,111.868599 
	C92.909416,112.611206 101.411186,113.324272 109.916199,113.996399 
	C118.466591,114.672112 127.047829,116.040588 135.563370,115.719894 
	C141.983765,115.478111 148.321854,113.050537 155.513458,111.759300 
	C161.834229,110.281227 167.338120,108.639732 172.841995,106.998238 
	C172.878952,109.039780 172.915909,111.081314 172.529877,113.567108 
	C155.990326,120.710777 139.360138,124.784912 121.748146,124.103416 
	C120.851746,124.068733 119.902664,125.395653 118.978119,126.088623 
z"/>
<path fill="#FFFFFF" opacity="1.000000" stroke="none"
	d="
M330.143921,86.000000
	C327.341217,86.000000 325.014038,86.000000 322.660126,86.000000
	C325.407013,91.123215 328.532135,92.204025 333.496643,89.842285
	C335.552338,88.864319 337.284576,86.748878 339.954224,89.312302
	C344.260101,93.446838 344.264282,94.670593 338.687683,97.031288
	C329.296326,101.006836 316.949432,99.360161 312.916901,90.112549
	C307.603363,77.927399 314.850281,66.654297 327.936310,65.822075
	C341.924713,64.932480 347.312469,74.122475 345.799805,86.000000
	C340.803528,86.000000 335.711456,86.000000 330.143921,86.000000
M323.367432,76.116379
	C323.896149,76.743797 324.396698,77.883095 324.958191,77.913956
	C328.142059,78.088905 331.340515,77.998627 334.953522,77.998627
	C331.791229,72.922050 328.103027,73.141258 323.367432,76.116379
z"/>
<path fill="#FFFFFF" opacity="1.000000" stroke="none" 
	d="
M290.283905,72.705002 
	C291.997589,76.690521 293.461090,80.358040 295.127014,84.532738 
	C297.540375,78.719063 299.421082,73.626938 301.815308,68.788956 
	C302.469391,67.467171 304.568054,66.469856 306.179352,66.110405 
	C308.224243,65.654213 310.448059,66.000061 312.804230,66.000061 
	C312.804230,67.364700 313.149139,68.609657 312.750732,69.534348 
	C308.888153,78.498970 304.975708,87.444870 300.839447,96.284744 
	C300.401306,97.221069 298.481415,97.763779 297.178284,97.927673 
	C295.052094,98.195084 292.867737,97.999893 290.299774,97.999893 
	C285.731567,87.581436 281.142761,77.116074 276.352570,66.191391 
	C280.626556,66.191391 284.076660,66.191391 287.466217,66.191391 
	C288.335876,68.289955 289.184814,70.338478 290.283905,72.705002 
z"/>
<path fill="#FFFFFF" opacity="1.000000" stroke="none" 
	d="
M389.937683,71.260178 
	C395.922638,63.929920 403.856842,62.697857 411.970184,67.733635 
	C411.970184,63.499569 411.970184,59.466053 411.970184,55.224731 
	C413.715485,55.224731 415.116394,55.224731 416.764069,55.224731 
	C416.764069,69.307899 416.764069,83.364960 416.764069,98.405479 
	C415.013275,97.787750 413.484833,97.147644 411.897552,96.732872 
	C411.153687,96.538490 410.272583,96.672554 409.495392,96.845337 
	C408.100555,97.155426 406.753662,97.871788 405.358093,97.958733 
	C391.571106,98.817680 384.260223,88.957695 388.387756,75.120346 
	C388.744659,73.923904 389.365570,72.806213 389.937683,71.260178 
M406.124054,92.987900 
	C411.772675,89.050789 413.944794,83.891586 412.008728,77.083221 
	C409.831512,69.426674 401.238373,66.901070 395.927582,72.803261 
	C394.052368,74.887314 393.007263,78.177155 392.622711,81.055367 
	C391.575592,88.892937 398.533325,95.266388 406.124054,92.987900 
z"/>
<path fill="#FFFFFF" opacity="1.000000" stroke="none" 
	d="
M377.995209,72.932480 
	C381.640747,81.253777 385.249695,89.182419 388.927124,97.261543 
	C384.851013,98.607826 382.826996,98.160286 381.945465,94.775032 
	C380.232025,88.195244 375.891235,85.685303 369.242554,86.974144 
	C368.280334,87.160675 367.205292,87.192444 366.259766,86.968910 
	C359.910858,85.467987 356.682343,89.065552 355.411346,94.366585 
	C354.447784,98.385307 352.287872,98.304123 348.337280,97.608170 
	C354.373901,83.610535 360.284119,69.905960 366.130524,56.349377 
	C369.375031,55.288818 371.051392,56.207726 372.176910,59.351448 
	C373.790924,63.859707 376.002289,68.154106 377.995209,72.932480 
M364.528870,73.980743 
	C363.330231,76.861778 362.131561,79.742813 360.833405,82.863022 
	C366.159576,82.863022 370.954163,82.863022 376.345551,82.863022 
	C373.648285,76.473991 371.088623,70.410980 368.444702,64.148293 
	C367.225555,67.358009 366.095032,70.334465 364.528870,73.980743 
z"/>
<path fill="#FFFFFF" opacity="1.000000" stroke="none" 
	d="
M495.732056,65.094559 
	C496.985901,65.007919 497.828247,65.084999 498.649994,64.987869 
	C511.253998,63.498142 516.040222,69.712471 515.796082,83.999527 
	C507.613190,83.999527 499.406494,83.999527 491.032745,83.999527 
	C494.586212,93.836151 498.509064,95.573334 507.246857,92.092728 
	C508.808868,91.470505 510.948334,92.297928 512.821167,92.456017 
	C511.671417,93.924995 510.715027,96.411652 509.335968,96.673683 
	C505.058807,97.486359 500.465698,98.313278 496.280151,97.557259 
	C489.114410,96.262962 486.036621,92.021675 486.205566,82.758842 
	C486.331543,75.853600 486.772125,68.157661 495.732056,65.094559 
M495.588135,71.943230 
	C493.917419,73.995171 492.246704,76.047119 490.069183,78.721558 
	C497.785461,78.721558 504.298065,78.721558 510.894836,78.721558 
	C508.058807,69.713852 503.103546,67.331749 495.588135,71.943230 
z"/>
<path fill="#FFFFFF" opacity="1.000000" stroke="none" 
	d="
M467.513611,76.842239 
	C471.319275,78.216019 474.700531,79.749695 478.245880,80.595833 
	C482.851440,81.695000 484.909729,84.978851 484.801544,88.962173 
	C484.683716,93.299706 482.374359,97.182014 477.459564,97.760818 
	C471.953003,98.409340 466.271271,98.750603 461.303802,95.568352 
	C460.187134,94.852997 459.845062,92.928452 459.146423,91.560555 
	C460.580627,91.093437 461.992737,90.389725 463.457794,90.252945 
	C464.263977,90.177673 465.196381,90.997574 466.008331,91.513786 
	C472.322815,95.528419 475.059265,95.053734 480.031342,88.958473 
	C477.682373,84.559425 473.005859,84.467232 469.047546,82.942162 
	C465.526184,81.585442 461.080200,81.627274 459.829834,76.531067 
	C458.685181,71.865723 460.740295,65.870766 465.280609,65.473183 
	C470.454956,65.020073 475.828491,66.219231 481.016998,67.213791 
	C481.804230,67.364685 482.058777,70.294739 482.559692,71.939316 
	C480.946198,72.024124 478.693512,72.836472 477.824982,72.073380 
	C472.902191,67.748085 467.810608,68.586296 463.794647,73.876312 
	C464.880615,74.785728 466.021393,75.741066 467.513611,76.842239 
z"/>
<path fill="#FFFFFF" opacity="1.000000" stroke="none" 
	d="
M254.000015,83.415939 
	C254.000000,88.471741 254.000000,93.074196 254.000000,97.831879
	C250.948441,97.831879 248.331558,97.831879 245.355942,97.831879 
	C245.355942,87.442818 245.355942,76.940437 245.355942,66.808578 
	C251.723328,66.808578 258.107880,66.808578 264.748444,66.808578 
	C264.748444,68.644814 264.748444,71.063248 264.748444,73.494003 
	C257.097412,75.026489 254.906097,76.953049 254.000015,83.415939 
z"/>
<path fill="#FFFFFF" opacity="1.000000" stroke="none" 
	d="
M432.619568,88.132904 
	C433.282227,88.421623 433.959717,88.578621 434.011780,88.460388 
	C436.716248,82.314880 439.311035,76.120720 442.050079,69.990982 
	C443.302155,67.188988 444.058014,63.388367 449.550476,65.733482 
	C447.523438,70.831688 445.552887,75.986130 443.427704,81.075996 
	C441.391144,85.953575 439.326569,90.830193 436.970673,95.555832 
	C436.410095,96.680237 434.685486,97.716377 433.409515,97.831535 
	C432.442993,97.918747 430.831085,96.703926 430.374664,95.681061 
	C426.201050,86.327820 422.208130,76.893738 418.201843,67.466499 
	C417.957336,66.891144 418.046753,66.173866 417.806519,63.800652 
	C420.475555,65.328033 423.181854,65.923462 423.900757,67.452980 
	C427.030212,74.111275 429.581360,81.041382 432.619568,88.132904 
z"/>
<path fill="#FFFFFF" opacity="1.000000" stroke="none" 
	d="
M268.143066,97.997673 
	C267.112793,97.389999 266.080719,96.789192 266.074524,96.177948 
	C265.973816,86.272743 266.003296,76.366211 266.003296,66.231766 
	C269.378357,66.231766 272.437775,66.231766 275.750824,66.231766 
	C275.750824,76.639259 275.750824,87.004234 275.750824,97.999687 
	C273.441437,97.999687 271.029999,97.999687 268.143066,97.997673 
z"/>
<path fill="#0EB101" opacity="1.000000" stroke="none" 
	d="
M151.841125,78.038498 
	C154.633682,90.285820 142.147003,101.377480 128.860840,98.328873 
	C121.107994,96.549927 112.776665,97.292068 104.029587,96.867104 
	C104.029587,92.396828 104.029587,88.140511 104.325035,83.314705 
	C105.053513,82.490471 105.486534,82.235718 105.950089,82.318237 
	C106.017532,83.104881 106.054436,83.554253 106.061829,84.379471 
	C106.059135,85.507797 106.085953,86.260269 106.079933,87.388908 
	C106.080200,88.518303 106.113297,89.271545 106.103897,90.447151 
	C105.232658,96.362869 109.110291,94.905983 112.408478,94.939163 
	C113.878181,94.929832 114.947365,94.877602 116.359390,94.878143 
	C117.162041,94.895256 117.621857,94.859589 118.410851,95.017662 
	C120.825157,95.000786 123.361717,95.474800 124.911797,94.452721 
	C129.796158,91.232109 134.310379,87.450127 139.045273,84.270554 
	C142.160187,84.696205 145.558075,85.581917 148.113602,84.492180 
	C149.941132,83.712868 150.639130,80.284737 151.841125,78.038498 
z"/>
<path fill="#20EA01" opacity="1.000000" stroke="none" 
	d="
M106.967148,29.168125 
	C107.758263,28.791836 108.549370,28.415545 109.714767,28.439436 
	C114.737770,36.561333 122.323166,36.576767 129.819092,35.856911 
	C134.332535,35.423462 138.785233,33.862938 140.898041,28.683458 
	C138.711014,28.117641 136.874115,27.642410 135.037216,27.167179 
	C139.404648,26.789730 143.772095,26.412281 148.826614,26.333782 
	C150.556442,26.925539 151.599182,27.218348 152.737427,27.537975 
	C152.458694,28.841030 152.227814,29.920340 151.664963,30.855469 
	C149.680237,30.860779 147.574982,30.416967 146.458023,31.268909 
	C142.835739,34.031796 139.453033,37.148151 136.242279,40.390064 
	C135.104446,41.538944 134.725433,43.439339 133.621796,44.955475 
	C129.266953,43.906750 125.309456,42.814594 121.309486,41.910255 
	C114.234032,40.310589 108.097145,37.381149 104.140038,30.838821 
	C105.305374,30.150156 106.136261,29.659140 106.967148,29.168125 
z"/>
<path fill="#1DE200" opacity="1.000000" stroke="none" 
	d="
M106.513412,29.099331 
	C106.136261,29.659140 105.305374,30.150156 104.140038,30.838821 
	C108.097145,37.381149 114.234032,40.310589 121.309486,41.910255 
	C125.309456,42.814594 129.266953,43.906750 134.051331,44.956245 
	C137.238754,45.325863 139.618439,45.653534 141.996490,46.191219 
	C141.994873,46.401234 141.990677,46.821259 141.990677,46.821259 
	C131.633240,47.201080 121.275795,47.580902 110.399750,47.570496 
	C108.484879,46.069370 106.969055,45.078285 105.714043,43.825848 
	C101.384872,39.505535 95.477043,36.308884 95.008575,29.164049 
	C98.692276,29.119547 102.375977,29.075043 106.513412,29.099331 
z"/>
<path fill="#17CD00" opacity="1.000000" stroke="none" 
	d="
M166.987579,31.167433 
	C171.467773,30.229883 173.520599,31.731066 173.068176,36.596737 
	C172.715530,40.389320 172.970047,44.238354 172.561066,48.571510 
	C169.097763,52.088257 166.028168,55.095791 162.958572,58.103325 
	C159.524521,55.459854 156.090469,52.816380 152.587906,49.761837 
	C160.437241,45.752388 164.023697,38.707600 166.987579,31.167433 
z"/>
<path fill="#049101" opacity="1.000000" stroke="none" 
	d="
M119.246368,126.404800 
	C119.902664,125.395653 120.851746,124.068733 121.748146,124.103416 
	C139.360138,124.784912 155.990326,120.710777 172.475067,114.001701 
	C172.882065,115.710426 172.920914,117.428802 172.903259,119.573891 
	C164.996536,122.809517 157.146332,125.618446 149.126160,128.756195 
	C148.206772,129.035904 147.457352,128.986755 146.246735,128.745636 
	C145.455551,128.369949 145.203827,128.464432 145.030365,128.837112 
	C136.525116,128.131729 128.019867,127.426353 119.246368,126.404800 
z"/>
<path fill="#1AD901" opacity="1.000000" stroke="none" 
	d="
M166.581924,31.074677 
	C164.023697,38.707600 160.437241,45.752388 152.281601,49.588608 
	C148.953812,48.870922 145.863800,47.915398 142.382233,46.890564 
	C141.990677,46.821259 141.994873,46.401234 142.360397,46.157093 
	C144.143250,45.615158 145.560593,45.317368 147.175629,45.280930 
	C149.291458,47.141624 151.058426,46.876247 151.957260,44.615868 
	C152.647797,42.879265 152.678528,40.880291 153.003006,38.585796 
	C152.667862,35.782284 152.332397,33.390968 151.996948,30.999649 
	C152.227814,29.920340 152.458694,28.841030 152.737427,27.537975 
	C151.599182,27.218348 150.556442,26.925539 149.272430,26.398697 
	C154.152344,25.708790 159.273514,25.252916 164.169205,24.817112 
	C164.970551,27.278465 165.573410,29.130194 166.581924,31.074677 
z"/>
<path fill="#12BD01" opacity="1.000000" stroke="none" 
	d="
M105.919556,81.980965 
	C105.486534,82.235718 105.053513,82.490471 104.392258,82.850189 
	C103.743683,74.924744 102.794456,74.009094 94.854736,74.002594 
	C91.560669,73.999901 88.266586,74.011353 84.399612,73.822525 
	C83.551147,73.421371 83.275574,73.214066 82.811218,72.735992 
	C79.471405,69.973625 76.320381,67.482033 73.169350,64.990440 
	C73.169350,62.280575 73.169350,59.570709 73.169350,55.516434 
	C77.665054,64.883339 85.286888,62.721451 92.595856,63.432457 
	C96.728584,67.226807 100.362579,70.614471 104.120529,74.270828 
	C104.845177,75.029602 105.445854,75.519684 106.045303,76.438553 
	C106.062546,78.584152 106.081024,80.300964 106.053757,82.012276 
	C106.008011,82.006783 105.919556,81.980965 105.919556,81.980965 
z"/>
<path fill="#FFFFFF" opacity="1.000000" stroke="none" 
	d="
M524.000000,82.257416 
	C524.000000,87.689308 524.000000,92.654655 524.000000,97.804649 
	C522.227478,97.804649 520.824646,97.804649 519.210327,97.804649 
	C519.210327,86.911880 519.210327,76.145958 519.210327,64.554955 
	C521.252014,65.199585 522.927856,65.728691 524.603638,66.257797 
	C524.452332,66.645645 524.301025,67.033493 524.149658,67.421341 
	C527.456726,66.409088 530.763794,65.396835 534.757629,64.174377 
	C534.862305,66.566010 534.929749,68.105576 534.996094,69.622627 
	C527.501526,70.800667 524.056519,74.710724 524.000000,82.257416 
z"/>
<path fill="#1AD901" opacity="1.000000" stroke="none" 
	d="
M94.597305,29.112823 
	C95.477043,36.308884 101.384872,39.505535 105.714043,43.825848 
	C106.969055,45.078285 108.484879,46.069370 109.943375,47.506702 
	C104.987434,47.892483 99.969246,47.951828 94.477753,47.684311 
	C93.232269,45.966240 92.426003,44.592690 91.694260,43.180527 
	C89.450653,38.850708 87.235626,34.506081 85.009491,30.167210 
	C88.068336,29.798670 91.127182,29.430132 94.597305,29.112823 
z"/>
<path fill="#17CB02" opacity="1.000000" stroke="none" 
	d="
M103.996567,74.002136 
	C100.362579,70.614471 96.728584,67.226807 93.055008,63.502216 
	C103.173409,63.111977 113.331406,63.058414 123.489403,63.005463 
	C128.354446,62.980106 133.348114,62.273548 138.041718,63.158310 
	C141.475998,63.805672 144.515854,66.545326 147.561951,68.884636 
	C147.247818,69.976471 147.103256,70.536041 146.680832,70.963135 
	C145.608337,70.194199 144.813690,69.557739 143.934830,68.699379 
	C143.672897,68.192039 143.419830,68.013245 142.918335,67.694016 
	C142.177399,67.268646 141.609573,67.090355 140.877686,66.666885 
	C140.153534,66.274178 139.593414,66.126640 138.777985,65.705139 
	C137.024475,65.319191 135.526245,65.207214 133.601501,65.056030 
	C131.465973,65.035812 129.756973,65.054802 127.790665,65.044518 
	C127.360786,65.011879 127.188187,65.008522 126.612076,64.997864 
	C124.140076,65.319572 122.071579,65.648575 119.835251,65.736679 
	C119.115257,65.334457 118.563103,65.173141 117.592567,65.007401 
	C109.891365,63.770405 107.661133,69.936432 103.996567,74.002136 
z"/>
<path fill="#20F101" opacity="1.000000" stroke="none" 
	d="
M134.576080,27.097733 
	C136.874115,27.642410 138.711014,28.117641 140.898041,28.683458 
	C138.785233,33.862938 134.332535,35.423462 129.819092,35.856911 
	C122.323166,36.576767 114.737770,36.561333 110.047707,28.502705 
	C118.042549,27.786621 126.078735,27.407454 134.576080,27.097733 
z"/>
<path fill="#049101" opacity="1.000000" stroke="none" 
	d="
M73.097893,111.453697 
	C83.783859,114.850456 94.414658,118.690399 105.021667,122.594925 
	C105.724075,122.853493 106.245430,123.603935 106.926399,124.469482 
	C95.899879,123.920319 84.797958,123.027260 73.037140,122.081192 
	C73.037140,118.414894 73.037140,115.163460 73.097893,111.453697 
z"/>
<path fill="#18D000" opacity="1.000000" stroke="none" 
	d="
M84.618965,30.098698 
	C87.235626,34.506081 89.450653,38.850708 91.694260,43.180527 
	C92.426003,44.592690 93.232269,45.966240 94.014664,47.732506 
	C90.651588,48.390839 87.278313,48.674110 83.448013,48.534389 
	C81.281311,44.651157 79.944275,40.927185 77.742073,37.815510 
	C76.031868,35.399029 76.520470,33.804668 77.965607,31.879150 
	C80.053215,31.262827 82.140831,30.646505 84.618965,30.098698 
z"/>
<path fill="#0FB300" opacity="1.000000" stroke="none" 
	d="
M73.101074,65.451500 
	C76.320381,67.482033 79.471405,69.973625 82.811859,73.203079 
	C82.665947,79.963333 82.330605,85.985718 81.639740,92.042702 
	C79.037651,93.017212 76.791084,93.957123 74.544510,94.897034 
	C74.544510,94.897034 74.543602,94.749825 74.704987,94.283493 
	C75.342545,92.621445 75.614204,91.283905 76.328781,90.253525 
	C80.349945,84.455261 79.787270,82.327347 73.168045,78.990723 
	C73.122963,74.631332 73.077881,70.271950 73.101074,65.451500 
z"/>
<path fill="#089C01" opacity="1.000000" stroke="none" 
	d="
M172.900391,106.534866 
	C167.338120,108.639732 161.834229,110.281227 155.873871,111.882713 
	C161.193375,105.565147 166.969360,99.287590 172.958801,92.778053 
	C172.958801,96.831184 172.958801,101.451332 172.900391,106.534866 
z"/>
<path fill="#FFFFFF" opacity="1.000000" stroke="none" 
	d="
M454.998535,67.273911 
	C454.984589,77.527840 454.970306,87.308281 454.944092,97.088684 
	C454.943695,97.229691 454.793427,97.370285 454.575165,97.752823 
	C453.648773,97.752823 452.577271,97.752823 451.251221,97.752823 
	C451.251221,87.106842 451.251221,76.390221 451.251221,64.317322 
	C452.798553,65.342995 453.897888,66.071701 454.998535,67.273911 
z"/>
<path fill="#11BC01" opacity="1.000000" stroke="none" 
	d="
M146.958679,71.095619 
	C147.103256,70.536041 147.247818,69.976471 147.611633,69.223328 
	C149.207275,71.781822 150.583694,74.533867 151.900620,77.662201 
	C150.639130,80.284737 149.941132,83.712868 148.113602,84.492180 
	C145.558075,85.581917 142.160187,84.696205 139.185486,83.973564 
	C141.191269,80.871933 143.134247,78.452431 145.354614,75.828094 
	C146.074219,74.114052 146.516449,72.604836 146.958679,71.095619 
z"/>
<path fill="#13C101" opacity="1.000000" stroke="none" 
	d="
M163.095901,58.406136 
	C166.028168,55.095791 169.097763,52.088257 172.500458,49.035027 
	C172.833527,55.547306 172.833527,62.105282 172.833527,69.951508 
	C169.054504,65.526031 166.143875,62.117489 163.095901,58.406136 
z"/>
<path fill="#15C702" opacity="1.000000" stroke="none" 
	d="
M77.600304,31.941761 
	C76.520470,33.804668 76.031868,35.399029 77.742073,37.815510 
	C79.944275,40.927185 81.281311,44.651157 82.999939,48.471909 
	C79.911743,48.832413 76.814621,48.832413 72.977837,48.832413 
	C74.062691,42.933891 70.046799,36.286728 77.600304,31.941761 
z"/>
<path fill="#FFFFFF" opacity="1.000000" stroke="none" 
	d="
M266.014282,58.319386 
	C267.937439,53.917183 271.762268,54.215729 274.451294,55.577717 
	C275.811340,56.266582 275.921814,60.231552 275.768707,62.663116 
	C275.714600,63.521839 273.024994,65.060158 271.843750,64.815453 
	C269.777069,64.387337 267.833771,62.967804 266.089417,61.635540 
	C265.605988,61.266338 266.006775,59.739410 266.014282,58.319386 
z"/>
<path fill="#0AA601" opacity="1.000000" stroke="none" 
	d="
M191.832611,20.032820 
	C191.874405,20.780838 191.916199,21.528858 191.710175,22.799129 
	C191.581284,23.872311 191.700211,24.423239 191.819122,24.974167 
	C191.846405,25.428789 191.873703,25.883411 191.684433,26.769112 
	C191.261703,27.357920 191.110199,27.557207 191.013336,27.798050 
	C185.991623,27.836954 180.969910,27.875858 175.465912,27.489113 
	C173.345001,26.005348 171.706375,24.947231 170.306061,23.908096 
	C170.544388,23.927076 171.018127,23.855419 171.437683,23.900070 
	C173.262421,23.896986 174.667618,23.849251 176.374512,23.743427 
	C177.780106,23.187691 178.884018,22.690039 180.299515,22.439388 
	C184.652557,23.074518 188.853073,24.135296 191.832611,20.032820 
z"/>
<path fill="#089D03" opacity="1.000000" stroke="none" 
	d="
M159.986404,8.996270 
	C161.737595,9.030123 163.488800,9.063975 165.542999,9.038076 
	C165.845993,11.080989 165.845993,13.183655 165.845993,15.966610 
	C161.263779,15.966610 156.902191,15.919213 152.542221,15.982033 
	C149.223877,16.029844 150.191422,13.627090 150.445999,11.414637 
	C151.519882,11.007711 152.191772,11.021914 152.900635,11.283895 
	C152.967194,11.696145 152.996765,11.860616 153.013184,12.014400 
	C153.000000,12.003714 153.026031,12.018473 152.828506,12.086262 
	C152.768799,12.426594 152.906631,12.699138 153.027649,12.988925 
	C153.010834,13.006169 153.020798,12.959447 153.169891,13.225117 
	C154.193588,13.376908 155.068176,13.263030 156.228119,12.983147 
	C157.353271,11.547383 158.193069,10.277627 159.032867,9.007866 
	C159.032852,9.007862 158.996933,8.997531 159.247803,9.025412 
	C159.498672,9.053293 159.986404,8.996270 159.986404,8.996270 
z"/>
<path fill="#2AFB05" opacity="1.000000" stroke="none" 
	d="
M178.947708,6.881321 
	C181.981903,6.250077 185.016113,5.618834 188.737061,5.120634 
	C189.321075,6.183224 189.218307,7.112770 188.922302,7.807105 
	C188.137924,8.089855 187.546783,8.607816 186.683472,9.271959 
	C185.317184,10.616137 184.223083,11.814131 182.817841,13.122232 
	C181.976044,14.123555 181.445358,15.014770 180.796173,16.121319 
	C180.469849,16.603420 180.205780,16.790995 179.699097,16.881359 
	C179.512726,16.863338 179.140594,16.800140 178.882507,16.580524 
	C177.106628,16.603706 175.588837,16.846502 174.047211,16.817482 
	C174.016006,16.363909 174.008621,16.182154 174.326248,15.859547 
	C179.019882,14.200512 179.407089,10.746710 178.947708,6.881321 
z"/>
<path fill="#0CA901" opacity="1.000000" stroke="none" 
	d="
M73.101257,79.453522 
	C79.787270,82.327347 80.349945,84.455261 76.328781,90.253525 
	C75.614204,91.283905 75.342545,92.621445 74.762871,94.238029 
	C74.108955,92.823944 73.238853,91.016075 73.080536,89.147881 
	C72.821503,86.091339 73.025681,82.995552 73.101257,79.453522 
z"/>
<path fill="#17CD00" opacity="1.000000" stroke="none" 
	d="
M174.001221,16.000397 
	C174.008621,16.182154 174.016006,16.363909 174.032684,17.046736 
	C174.041946,17.547806 174.019897,18.008656 173.793274,18.115471 
	C173.404709,18.505642 173.242767,18.788994 173.068481,19.045572 
	C173.056137,19.018797 173.045273,19.076614 172.815216,19.158209 
	C172.294128,19.431522 172.125488,19.700106 172.061218,20.052776 
	C172.043182,20.060005 172.045959,20.098753 171.806702,20.075500 
	C171.567444,20.052248 171.086792,20.062809 170.924408,19.759720 
	C170.141220,18.261759 169.520401,17.066887 168.899582,15.872017 
	C169.374481,12.739753 166.265091,7.678253 173.749451,8.223175 
	C174.238815,10.970043 174.120026,13.485220 174.001221,16.000397 
z"/>
<path fill="#10B501" opacity="1.000000" stroke="none" 
	d="
M191.891266,19.633244 
	C188.853073,24.135296 184.652557,23.074518 180.593964,22.274734 
	C182.318481,20.550888 184.060165,19.238697 186.168365,17.944359 
	C188.296021,17.314989 190.057175,16.667767 191.818314,16.020546 
	C191.862183,17.091585 191.906036,18.162628 191.891266,19.633244 
z"/>
<path fill="#09CC01" opacity="1.000000" stroke="none" 
	d="
M74.440315,95.289795 
	C76.791084,93.957123 79.037651,93.017212 81.640747,92.486847 
	C82.028564,95.275497 82.059845,97.654594 82.091125,100.033699 
	C79.783585,99.729759 77.476036,99.425827 74.778877,99.017067 
	C74.371552,97.835678 74.353836,96.759117 74.440315,95.289795 
z"/>
<path fill="#16CA07" opacity="1.000000" stroke="none" 
	d="
M191.879166,15.561588 
	C190.057175,16.667767 188.296021,17.314989 186.251495,17.609928 
	C186.671158,15.852139 187.374237,14.446633 188.345322,12.802814 
	C188.715927,11.382711 188.818527,10.200921 188.968872,8.774755 
	C189.016617,8.530381 189.115540,8.042315 189.115540,8.042316 
	C189.218307,7.112770 189.321075,6.183224 189.153503,5.079398 
	C190.688919,3.347753 191.906464,3.544428 191.980804,6.122554 
	C192.067032,9.113034 191.962021,12.109029 191.879166,15.561588 
z"/>
<path fill="#079706" opacity="1.000000" stroke="none" 
	d="
M168.582123,16.158817 
	C169.520401,17.066887 170.141220,18.261759 170.905273,20.002695 
	C171.048508,20.548759 171.061935,21.036911 171.037247,21.015480 
	C171.012558,20.994047 171.049927,21.044800 170.767776,21.207870 
	C170.346329,22.210333 170.207031,23.049725 170.067734,23.889114 
	C171.706375,24.947231 173.345001,26.005348 175.004242,27.428917 
	C172.916367,27.794367 170.807892,27.794367 168.264664,27.794367 
	C168.264664,23.873779 168.264664,20.159700 168.582123,16.158817 
z"/>
<path fill="#FFFFFF" opacity="1.000000" stroke="none" 
	d="
M455.964264,56.058456 
	C455.483124,58.299641 455.098328,60.152721 454.304718,61.810066 
	C454.200348,62.028103 451.320496,61.606255 450.922241,60.850498 
	C450.103485,59.296635 450.094360,57.316139 449.611603,54.771019 
	C452.198883,55.114132 454.066071,55.361748 455.964264,56.058456 
z"/>
<path fill="#20E001" opacity="1.000000" stroke="none" 
	d="
M174.326248,15.859547 
	C174.120026,13.485220 174.238815,10.970043 174.133240,8.205812 
	C175.329773,7.627881 176.750687,7.299002 178.559647,6.925722 
	C179.407089,10.746710 179.019882,14.200512 174.326248,15.859547 
z"/>
<path fill="#0CA709" opacity="1.000000" stroke="none" 
	d="
M82.379776,100.021484 
	C82.059845,97.654594 82.028564,95.275497 81.996277,92.452255 
	C82.330605,85.985718 82.665947,79.963333 83.000641,73.473846 
	C83.275574,73.214066 83.551147,73.421371 83.936874,73.867287 
	C84.010994,82.422287 83.974953,90.738686 83.882080,99.519852 
	C83.439644,99.992836 83.054039,100.001053 82.379776,100.021484 
z"/>
<path fill="#15C702" opacity="1.000000" stroke="none" 
	d="
M151.610367,3.984803 
	C153.741592,5.355297 158.340607,4.571644 155.900620,9.789515 
	C155.580887,10.649548 155.336411,10.867776 154.928802,10.805605 
	C154.620636,10.333735 154.359467,10.163735 153.854309,9.803974 
	C152.494049,8.026023 151.320724,6.525498 150.147385,5.024977 
	C150.535263,4.685046 150.923126,4.345112 151.610367,3.984803 
z"/>
<path fill="#049101" opacity="1.000000" stroke="none" 
	d="
M109.220551,125.390434 
	C111.303986,121.279007 113.575188,123.745445 115.929413,125.482353 
	C113.825119,125.776375 111.648582,125.738441 109.220551,125.390434 
z"/>
<path fill="#10B501" opacity="1.000000" stroke="none" 
	d="
M150.084915,5.445961 
	C151.320724,6.525498 152.494049,8.026023 153.832825,10.024484 
	C153.998276,10.522420 153.915192,10.959509 153.651855,10.972632 
	C153.213562,11.002542 153.038605,11.019329 152.863647,11.036116 
	C152.191772,11.021914 151.519882,11.007711 150.512878,10.981363 
	C150.125977,9.268462 150.074219,7.567706 150.084915,5.445961 
z"/>
<path fill="#079706" opacity="1.000000" stroke="none" 
	d="
M191.886719,24.651844 
	C191.700211,24.423239 191.581284,23.872311 191.658600,23.171528 
	C191.887970,23.457623 191.921143,23.893570 191.886719,24.651844 
z"/>
<path fill="#028E01" opacity="1.000000" stroke="none" 
	d="
M145.264420,128.873932 
	C145.203827,128.464432 145.455551,128.369949 145.875122,128.689789 
	C145.964691,128.825928 145.498474,128.910736 145.264420,128.873932 
z"/>
<path fill="#079706" opacity="1.000000" stroke="none" 
	d="
M191.242401,27.797184 
	C191.110199,27.557207 191.261703,27.357920 191.632812,27.107655 
	C191.903549,27.365202 191.794785,27.625601 191.242401,27.797184 
z"/>
<path fill="#5BF359" opacity="1.000000" stroke="none" 
	d="
M155.032837,11.019814 
	C155.336411,10.867776 155.580887,10.649548 155.857437,10.133692 
	C156.759384,9.567183 157.570190,9.232109 158.706924,8.952453 
	C158.193069,10.277627 157.353271,11.547383 155.866837,12.922892 
	C154.487061,13.005577 153.753937,12.982512 153.020798,12.959447 
	C153.020798,12.959447 153.010834,13.006169 153.053986,12.750008 
	C153.097137,12.493847 153.026031,12.018473 153.026031,12.018473 
	C153.026031,12.018473 153.000000,12.003714 153.258057,12.041935 
	C153.516113,12.080157 154.002869,12.001581 154.231934,11.906460 
	C154.747681,11.616920 154.938293,11.353079 155.032837,11.019814 
z"/>
<path fill="#5BF359" opacity="1.000000" stroke="none" 
	d="
M160.118973,8.706310 
	C159.986404,8.996270 159.498672,9.053293 159.253387,9.043259 
	C159.453308,8.059392 159.898499,7.085558 160.702850,6.100085 
	C160.791840,6.864415 160.521683,7.640383 160.118973,8.706310 
z"/>
<path fill="#000000" opacity="1.000000" stroke="none" 
	d="
M213.000000,74.050522 
	C213.000000,71.248352 213.000000,68.936996 213.000000,66.186150 
	C219.021332,65.812317 225.729828,64.960800 229.138733,70.226967 
	C231.280823,73.536148 231.223404,79.599579 229.808594,83.597839 
	C227.046127,91.404411 219.529297,88.555695 213.000000,89.024055 
	C213.000000,84.054932 213.000000,79.298141 213.000000,74.050522 
z"/>
<path fill="#000000" opacity="1.000000" stroke="none" 
	d="
M323.677917,75.824951 
	C328.103027,73.141258 331.791229,72.922050 334.953522,77.998627 
	C331.340515,77.998627 328.142059,78.088905 324.958191,77.913956 
	C324.396698,77.883095 323.896149,76.743797 323.677917,75.824951 
z"/>
<path fill="#000000" opacity="1.000000" stroke="none" 
	d="
M405.738159,93.060989 
	C398.533325,95.266388 391.575592,88.892937 392.622711,81.055367 
	C393.007263,78.177155 394.052368,74.887314 395.927582,72.803261 
	C401.238373,66.901070 409.831512,69.426674 412.008728,77.083221 
	C413.944794,83.891586 411.772675,89.050789 405.738159,93.060989 
z"/>
<path fill="#000000" opacity="1.000000" stroke="none" 
	d="
M364.746674,73.645828 
	C366.095032,70.334465 367.225555,67.358009 368.444702,64.148293 
	C371.088623,70.410980 373.648285,76.473991 376.345551,82.863022 
	C370.954163,82.863022 366.159576,82.863022 360.833405,82.863022 
	C362.131561,79.742813 363.330231,76.861778 364.746674,73.645828 
z"/>
<path fill="#000000" opacity="1.000000" stroke="none" 
	d="
M495.838562,71.655518 
	C503.103546,67.331749 508.058807,69.713852 510.894836,78.721558 
	C504.298065,78.721558 497.785461,78.721558 490.069183,78.721558 
	C492.246704,76.047119 493.917419,73.995171 495.838562,71.655518 
z"/>
<path fill="#83F487" opacity="1.000000" stroke="none" 
	d="
M145.077225,76.032928 
	C143.134247,78.452431 141.191269,80.871933 139.108063,83.588425 
	C134.310379,87.450127 129.796158,91.232109 124.911797,94.452721 
	C123.361717,95.474800 120.825157,95.000786 118.578995,94.800911 
	C118.942276,94.255562 119.466583,94.120697 120.361969,93.986465 
	C121.620567,93.638275 122.698639,93.502716 123.365471,92.906906 
	C128.724823,88.118370 133.908844,83.128281 139.376007,78.469154 
	C140.877792,77.189331 143.155548,76.820038 145.077225,76.032928 
z"/>
<path fill="#4FEF4E" opacity="1.000000" stroke="none" 
	d="
M112.007965,94.896255 
	C109.110291,94.905983 105.232658,96.362869 106.472198,90.438812 
	C108.794960,88.966225 110.846169,88.115341 112.590515,86.843575 
	C116.478973,84.008568 120.214127,80.963310 124.255943,78.192978 
	C123.519905,79.901413 122.595039,81.460121 121.546097,82.930290 
	C120.078743,84.986923 118.518890,86.977562 116.844040,89.240204 
	C116.122520,89.986992 115.555573,90.490005 114.669495,91.035179 
	C113.897324,91.713348 113.444290,92.349350 112.752594,93.144089 
	C112.345276,93.833969 112.176620,94.365112 112.007965,94.896255 
z"/>
<path fill="#43F03E" opacity="1.000000" stroke="none" 
	d="
M124.011765,78.003731 
	C120.214127,80.963310 116.478973,84.008568 112.590515,86.843575 
	C110.846169,88.115341 108.794960,88.966225 106.514702,90.016449 
	C106.113297,89.271545 106.080200,88.518303 106.422180,87.344040 
	C112.198059,82.616096 117.598854,78.309181 123.333046,74.001648 
	C124.110962,74.000786 124.555481,74.000549 125.113159,74.223801 
	C125.497139,74.635902 125.767952,74.824524 125.993973,75.324921 
	C125.303375,76.425705 124.657570,77.214722 124.011765,78.003731 
z"/>
<path fill="#38F12E" opacity="1.000000" stroke="none" 
	d="
M122.999649,74.002258 
	C117.598854,78.309181 112.198059,82.616096 106.455017,86.967880 
	C106.085953,86.260269 106.059135,85.507797 106.417732,84.371872 
	C109.204384,81.661484 111.605621,79.334541 114.162476,76.704010 
	C116.526344,75.261131 118.734596,74.121826 121.249146,73.006729 
	C122.036842,73.354713 122.518242,73.678490 122.999649,74.002258 
z"/>
<path fill="#64F264" opacity="1.000000" stroke="none" 
	d="
M114.988617,90.993011 
	C115.555573,90.490005 116.122520,89.986992 117.189423,89.208038 
	C119.793526,87.622040 121.897682,86.311981 123.977417,85.321129 
	C123.636627,86.428322 123.320267,87.216309 122.759186,88.170799 
	C122.340836,88.889793 122.167206,89.442276 121.630447,89.999184 
	C119.517059,91.610863 117.766815,93.218117 116.016556,94.825371 
	C114.947365,94.877602 113.878181,94.929832 112.408478,94.939163 
	C112.176620,94.365112 112.345276,93.833969 113.074936,93.107933 
	C114.086823,92.273033 114.537720,91.633018 114.988617,90.993011 
z"/>
<path fill="#2CF71A" opacity="1.000000" stroke="none" 
	d="
M114.006866,77.007599 
	C111.605621,79.334541 109.204384,81.661484 106.447235,83.996025 
	C106.054436,83.554253 106.017532,83.104881 105.950089,82.318237 
	C105.919556,81.980965 106.008011,82.006783 106.386871,81.965118 
	C109.179451,80.284828 111.593155,78.646217 114.006866,77.007599 
z"/>
<path fill="#6DF36E" opacity="1.000000" stroke="none" 
	d="
M116.359390,94.878143 
	C117.766815,93.218117 119.517059,91.610863 121.492928,90.295273 
	C121.142662,91.719894 120.566772,92.852867 119.990891,93.985840 
	C119.466583,94.120697 118.942276,94.255562 118.249817,94.607170 
	C117.621857,94.859589 117.162041,94.895256 116.359390,94.878143 
z"/>
<path fill="#25E900" opacity="1.000000" stroke="none" 
	d="
M146.977921,45.019569 
	C145.560593,45.317368 144.143250,45.615158 142.362015,45.947079 
	C139.618439,45.653534 137.238754,45.325863 134.429535,44.997417 
	C134.725433,43.439339 135.104446,41.538944 136.242279,40.390064 
	C139.453033,37.148151 142.835739,34.031796 146.458023,31.268909 
	C147.574982,30.416967 149.680237,30.860779 151.664963,30.855469 
	C152.332397,33.390968 152.667862,35.782284 152.692902,38.721771 
	C150.580963,41.186481 148.779434,43.103027 146.977921,45.019569 
z"/>
<path fill="#2AFB05" opacity="1.000000" stroke="none" 
	d="
M147.175629,45.280930 
	C148.779434,43.103027 150.580963,41.186481 152.692596,39.133965 
	C152.678528,40.880291 152.647797,42.879265 151.957260,44.615868 
	C151.058426,46.876247 149.291458,47.141624 147.175629,45.280930 
z"/>
<path fill="#1EFB05" opacity="1.000000" stroke="none" 
	d="
M114.162476,76.704010 
	C111.593155,78.646217 109.179451,80.284828 106.432617,81.970612 
	C106.081024,80.300964 106.062546,78.584152 106.412292,76.440636 
	C107.516899,76.004051 108.253296,75.994171 109.320389,75.960938 
	C110.763916,74.955032 111.876747,73.972488 113.208588,72.881302 
	C113.701035,72.573395 113.889122,72.312592 114.337402,71.960045 
	C116.456314,69.945763 118.229698,67.961662 120.003082,65.977570 
	C122.071579,65.648575 124.140076,65.319572 126.610657,65.249794 
	C127.017593,65.676933 127.022446,65.844856 127.014282,66.008881 
	C127.001259,66.004990 127.018784,66.027122 126.672424,66.049171 
	C124.879448,67.708313 123.432831,69.345413 121.743195,71.153633 
	C121.314400,71.877342 121.128624,72.429939 120.942848,72.982529 
	C118.734596,74.121826 116.526344,75.261131 114.162476,76.704010 
z"/>
<path fill="#1DD900" opacity="1.000000" stroke="none" 
	d="
M108.989685,75.984299 
	C108.253296,75.994171 107.516899,76.004051 106.413513,76.011841 
	C105.445854,75.519684 104.845177,75.029602 104.120529,74.270828 
	C107.661133,69.936432 109.891365,63.770405 117.555031,65.351028 
	C116.621201,67.796120 115.306541,69.893173 113.991882,71.990227 
	C113.889122,72.312592 113.701035,72.573395 112.845749,72.886826 
	C111.172493,73.995430 110.081093,74.989861 108.989685,75.984299 
z"/>
<path fill="#78F479" opacity="1.000000" stroke="none" 
	d="
M120.361969,93.986465 
	C120.566772,92.852867 121.142662,91.719894 121.856064,90.290848 
	C122.167206,89.442276 122.340836,88.889793 123.125305,88.166382 
	C130.524384,84.480774 136.170456,79.726738 140.001297,73.002220 
	C140.000000,73.000000 140.004349,73.002594 140.350006,72.968201 
	C141.803452,71.596298 142.911255,70.258781 144.019043,68.921272 
	C144.813690,69.557739 145.608337,70.194199 146.680817,70.963135 
	C146.516449,72.604836 146.074219,74.114052 145.354614,75.828094 
	C143.155548,76.820038 140.877792,77.189331 139.376007,78.469154 
	C133.908844,83.128281 128.724823,88.118370 123.365471,92.906906 
	C122.698639,93.502716 121.620567,93.638275 120.361969,93.986465 
z"/>
<path fill="#5BF359" opacity="1.000000" stroke="none" 
	d="
M124.001831,85.001915 
	C121.897682,86.311981 119.793526,87.622040 117.343994,88.964264 
	C118.518890,86.977562 120.078743,84.986923 121.546097,82.930290 
	C122.595039,81.460121 123.519905,79.901413 124.255951,78.192978 
	C124.657570,77.214722 125.303375,76.425705 126.374435,75.323631 
	C130.877563,72.000092 134.955429,68.989601 139.033295,65.979111 
	C139.593414,66.126640 140.153534,66.274178 140.731628,66.975082 
	C137.656921,70.694687 134.542206,73.839806 131.478943,77.034256 
	C129.284439,79.322731 127.158806,81.677246 124.893066,84.220551 
	C124.583923,84.710991 124.323303,84.898697 124.001831,85.001915 
z"/>
<path fill="#4FF646" opacity="1.000000" stroke="none" 
	d="
M138.777985,65.705139 
	C134.955429,68.989601 130.877563,72.000092 126.419220,75.011856 
	C125.767952,74.824524 125.497139,74.635902 125.266014,73.922699 
	C128.213150,70.630493 131.120590,67.862869 134.028030,65.095245 
	C135.526245,65.207214 137.024475,65.319191 138.777985,65.705139 
z"/>
<path fill="#64F264" opacity="1.000000" stroke="none" 
	d="
M125.002449,84.002304 
	C127.158806,81.677246 129.284439,79.322731 131.478943,77.034256 
	C134.542206,73.839806 137.656921,70.694687 140.895676,67.220261 
	C141.609573,67.090355 142.177399,67.268646 142.638672,67.883926 
	C141.689529,69.881477 140.846939,71.442032 140.004349,73.002594 
	C140.004349,73.002594 140.000000,73.000000 139.656189,73.033783 
	C137.672989,74.413620 136.075928,75.815651 134.385056,77.093552 
	C131.286743,79.435127 128.133057,81.703453 125.002449,84.002304 
z"/>
<path fill="#41F733" opacity="1.000000" stroke="none" 
	d="
M133.601501,65.056030 
	C131.120590,67.862869 128.213150,70.630493 125.152847,73.699211 
	C124.555481,74.000549 124.110962,74.000786 123.333046,74.001648 
	C122.518242,73.678490 122.036842,73.354713 121.249146,73.006729 
	C121.128624,72.429939 121.314400,71.877342 122.089188,71.128700 
	C124.125069,69.297470 125.571922,67.662300 127.018784,66.027122 
	C127.018784,66.027122 127.001259,66.004990 127.230743,65.908791 
	C127.728539,65.623940 127.924454,65.377678 128.047958,65.073792 
	C129.756973,65.054802 131.465973,65.035812 133.601501,65.056030 
z"/>
<path fill="#20EA01" opacity="1.000000" stroke="none" 
	d="
M114.337410,71.960045 
	C115.306541,69.893173 116.621201,67.796120 117.973404,65.355438 
	C118.563103,65.173141 119.115257,65.334457 119.835251,65.736671 
	C118.229698,67.961662 116.456314,69.945763 114.337410,71.960045 
z"/>
<path fill="#6DF36E" opacity="1.000000" stroke="none" 
	d="
M140.350006,72.968201 
	C140.846939,71.442032 141.689529,69.881477 142.811768,68.131004 
	C143.419830,68.013245 143.672897,68.192039 143.934830,68.699379 
	C142.911255,70.258781 141.803452,71.596298 140.350006,72.968201 
z"/>
<path fill="#2CF71A" opacity="1.000000" stroke="none" 
	d="
M127.790665,65.044525 
	C127.924454,65.377678 127.728539,65.623940 127.243759,65.912689 
	C127.022446,65.844856 127.017593,65.676933 127.014160,65.257080 
	C127.188187,65.008522 127.360786,65.011879 127.790665,65.044525 
z"/>
<path fill="#6CF669" opacity="1.000000" stroke="none" 
	d="
M188.077301,13.041124 
	C187.374237,14.446633 186.671158,15.852139 185.884979,17.592075 
	C184.060165,19.238697 182.318481,20.550888 180.282349,22.027733 
	C178.884018,22.690039 177.780106,23.187691 176.393814,23.414459 
	C177.406876,21.427132 178.702332,19.710684 179.989960,17.718477 
	C179.949905,17.261606 179.917679,17.080492 179.885452,16.899380 
	C180.205780,16.790995 180.469849,16.603420 181.154999,16.156075 
	C182.131241,14.987707 182.630112,13.999921 183.128983,13.012130 
	C184.223083,11.814131 185.317184,10.616137 186.669144,9.289385 
	C186.927002,9.160628 186.965515,9.192239 186.961487,9.544254 
	C187.330734,10.944552 187.704025,11.992836 188.077301,13.041124 
z"/>
<path fill="#49EC49" opacity="1.000000" stroke="none" 
	d="
M179.997772,17.994234 
	C178.702332,19.710684 177.406876,21.427132 176.092102,23.472548 
	C174.667618,23.849251 173.262421,23.896986 171.428802,23.550503 
	C171.016876,22.452456 171.033401,21.748627 171.049927,21.044800 
	C171.049927,21.044800 171.012558,20.994047 171.252045,20.918530 
	C171.762466,20.659101 171.947281,20.411015 172.045959,20.098753 
	C172.045959,20.098753 172.043182,20.060005 172.278107,19.954407 
	C172.785751,19.657120 172.963165,19.399721 173.045273,19.076614 
	C173.045273,19.076614 173.056137,19.018797 173.313995,19.045429 
	C173.571838,19.072060 174.063217,19.047083 174.408508,19.039661 
	C175.832382,18.684656 176.910965,18.337072 178.324280,17.991846 
	C179.105286,17.994213 179.551529,17.994223 179.997772,17.994234 
z"/>
<path fill="#2CF71A" opacity="1.000000" stroke="none" 
	d="
M170.767776,21.207870 
	C171.033401,21.748627 171.016876,22.452456 171.009247,23.505852 
	C171.018127,23.855419 170.544388,23.927076 170.306061,23.908096 
	C170.207031,23.049725 170.346329,22.210333 170.767776,21.207870 
z"/>
<path fill="#09CC01" opacity="1.000000" stroke="none" 
	d="
M153.169891,13.225117 
	C153.753937,12.982512 154.487061,13.005577 155.581482,13.088898 
	C155.068176,13.263030 154.193588,13.376908 153.169891,13.225117 
z"/>
<path fill="#09CC01" opacity="1.000000" stroke="none" 
	d="
M154.002869,12.001581 
	C154.002869,12.001581 153.516113,12.080157 153.271240,12.052622 
	C152.996765,11.860616 152.967194,11.696145 152.900635,11.283895 
	C153.038605,11.019329 153.213562,11.002542 153.677155,11.233124 
	C153.978134,11.654188 153.990494,11.827885 154.002869,12.001581 
z"/>
<path fill="#09CC01" opacity="1.000000" stroke="none" 
	d="
M152.828506,12.086262 
	C153.026031,12.018473 153.097137,12.493847 153.070801,12.732763 
	C152.906631,12.699138 152.768799,12.426594 152.828506,12.086262 
z"/>
<path fill="#38F12E" opacity="1.000000" stroke="none" 
	d="
M177.989532,17.989487 
	C176.910965,18.337072 175.832382,18.684656 174.391968,18.780014 
	C174.026718,18.354742 174.023300,18.181700 174.019897,18.008656 
	C174.019897,18.008656 174.041946,17.547806 174.056488,17.318554 
	C175.588837,16.846502 177.106628,16.603706 178.644409,16.735870 
	C178.439423,17.403717 178.214478,17.696600 177.989532,17.989487 
z"/>
<path fill="#51FE3A" opacity="1.000000" stroke="none" 
	d="
M182.817841,13.122236 
	C182.630112,13.999921 182.131241,14.987707 181.273514,15.940740 
	C181.445358,15.014770 181.976044,14.123555 182.817841,13.122236 
z"/>
<path fill="#51FE3A" opacity="1.000000" stroke="none" 
	d="
M188.922302,7.807105 
	C189.115540,8.042315 189.016617,8.530381 188.641693,8.776236 
	C187.833008,9.078806 187.399261,9.135523 186.965515,9.192240 
	C186.965515,9.192239 186.927002,9.160628 186.941315,9.143202 
	C187.546783,8.607816 188.137924,8.089855 188.922302,7.807105 
z"/>
<path fill="#51FE3A" opacity="1.000000" stroke="none" 
	d="
M178.324280,17.991844 
	C178.214478,17.696600 178.439423,17.403717 178.902496,16.955486 
	C179.140594,16.800140 179.512726,16.863338 179.699097,16.881359 
	C179.917679,17.080492 179.949905,17.261606 179.989960,17.718475 
	C179.551529,17.994223 179.105286,17.994213 178.324280,17.991844 
z"/>
<path fill="#2CF71A" opacity="1.000000" stroke="none" 
	d="
M173.793274,18.115471 
	C174.023300,18.181700 174.026718,18.354742 174.046661,18.787434 
	C174.063217,19.047083 173.571838,19.072060 173.326324,19.072205 
	C173.242767,18.788994 173.404709,18.505642 173.793274,18.115471 
z"/>
<path fill="#2CF71A" opacity="1.000000" stroke="none" 
	d="
M172.815216,19.158209 
	C172.963165,19.399721 172.785751,19.657120 172.296127,19.947178 
	C172.125488,19.700106 172.294128,19.431522 172.815216,19.158209 
z"/>
<path fill="#2CF71A" opacity="1.000000" stroke="none" 
	d="
M171.806702,20.075500 
	C171.947281,20.411015 171.762466,20.659101 171.276733,20.939962 
	C171.061935,21.036911 171.048508,20.548759 171.067657,20.305784 
	C171.086792,20.062809 171.567444,20.052248 171.806702,20.075500 
z"/>
<path fill="#5EFB51" opacity="1.000000" stroke="none" 
	d="
M186.961487,9.544254 
	C187.399261,9.135523 187.833008,9.078806 188.593933,9.020611 
	C188.818527,10.200921 188.715927,11.382711 188.345306,12.802811 
	C187.704025,11.992836 187.330734,10.944552 186.961487,9.544254 
z"/>
<path fill="#2CF71A" opacity="1.000000" stroke="none" 
	d="
M154.231934,11.906460 
	C153.990494,11.827885 153.978134,11.654188 153.940475,11.220001 
	C153.915192,10.959509 153.998276,10.522420 154.019745,10.301910 
	C154.359467,10.163735 154.620636,10.333735 154.928802,10.805605 
	C154.938293,11.353079 154.747681,11.616920 154.231934,11.906460 
z"/>
<path fill="#5BF359" opacity="1.000000" stroke="none" 
	d="
M114.669487,91.035172 
	C114.537720,91.633018 114.086823,92.273033 113.313591,92.949196 
	C113.444290,92.349350 113.897324,91.713348 114.669487,91.035172 
z"/>
<path fill="#6DF36E" opacity="1.000000" stroke="none" 
	d="
M124.893066,84.220551 
	C128.133057,81.703453 131.286743,79.435127 134.385056,77.093552 
	C136.075928,75.815651 137.672989,74.413620 139.657471,73.036003 
	C136.170456,79.726738 130.524384,84.480774 123.370026,87.999878 
	C123.320267,87.216309 123.636627,86.428322 123.977417,85.321129 
	C124.323303,84.898697 124.583923,84.710991 124.893066,84.220551 
z"/>
<path fill="#2CF71A" opacity="1.000000" stroke="none" 
	d="
M126.672424,66.049171 
	C125.571922,67.662300 124.125069,69.297470 122.332214,70.957581 
	C123.432831,69.345413 124.879448,67.708313 126.672424,66.049171 
z"/>
<path fill="#20EA01" opacity="1.000000" stroke="none" 
	d="
M109.320389,75.960938 
	C110.081093,74.989861 111.172493,73.995430 112.626740,72.995468 
	C111.876747,73.972488 110.763916,74.955032 109.320389,75.960938 
z"/>
</svg>